<svg xmlns="http://www.w3.org/2000/svg" width="240.109" height="216.098" viewBox="0 0 240.109 216.098">
          <g id="gr_3756" data-name="gr 3756" transform="translate(0)">
            <path id="pth_405" data-name="pth 405" d="M1.027,136.723a1.016,1.016,0,0,1-.664-.245,1.033,1.033,0,0,1-.119-1.453c.713-.844,1.419-1.871,2.167-2.958.679-.987,1.382-2.009,2.165-3A24.69,24.69,0,0,1,7.782,125.9l.873-.761a16.694,16.694,0,0,0,2.83-2.873,17.318,17.318,0,0,0,1.358-2.45A13.141,13.141,0,0,1,15.3,116a18.565,18.565,0,0,1,1.731-1.4c.46-.343.893-.669,1.171-.913a22.163,22.163,0,0,0,4.687-6.362c.2-.365.4-.735.593-1.108a30.824,30.824,0,0,1,3.028-4.912c.64-.805,1.363-1.607,2.06-2.383.479-.532.954-1.06,1.4-1.584.339-.4.662-.814.986-1.229A19.532,19.532,0,0,1,33.358,93.4a6.38,6.38,0,0,1,5.127-1.751,8.071,8.071,0,0,1,4.72,2.9c.293.362.584.7.87,1.042a24.026,24.026,0,0,1,2.046,2.66,28.806,28.806,0,0,0,2.18,2.928,22.073,22.073,0,0,0,1.587,1.611c.547.521,1.112,1.06,1.534,1.541a51.012,51.012,0,0,1,3.152,4.111c.935,1.312,1.818,2.551,2.849,3.733a1.029,1.029,0,0,1-1.547,1.358c-1.1-1.258-2.052-2.6-2.974-3.891a49.07,49.07,0,0,0-3.024-3.949c-.361-.412-.892-.918-1.4-1.407a23.381,23.381,0,0,1-1.75-1.785,31.011,31.011,0,0,1-2.332-3.137,22.213,22.213,0,0,0-1.88-2.435c-.3-.35-.6-.705-.9-1.08a6.088,6.088,0,0,0-3.35-2.153,4.376,4.376,0,0,0-3.543,1.249,17.648,17.648,0,0,0-2.146,2.435c-.34.436-.682.873-1.038,1.293-.456.538-.946,1.083-1.438,1.63-.677.752-1.377,1.531-1.979,2.288a29.249,29.249,0,0,0-2.821,4.595c-.2.379-.4.756-.6,1.127a24.31,24.31,0,0,1-5.134,6.921c-.34.3-.806.649-1.3,1.018a18.123,18.123,0,0,0-1.521,1.216,11.421,11.421,0,0,0-2.046,3.25,19.081,19.081,0,0,1-1.53,2.74A18.511,18.511,0,0,1,10,126.7l-.867.755a23.249,23.249,0,0,0-2.939,2.881c-.742.946-1.427,1.94-2.088,2.9-.777,1.131-1.512,2.2-2.291,3.12a1.021,1.021,0,0,1-.784.364" transform="translate(0 -17.095)"></path>
            <path id="pth_406" data-name="pth 406" d="M25.581,140.006a1.023,1.023,0,0,1-.775-.353,1.034,1.034,0,0,1,.1-1.455,10.644,10.644,0,0,0,2.288-3.476,16.888,16.888,0,0,1,2.976-4.551c.343-.406.667-.789.974-1.188a34.384,34.384,0,0,0,2.111-3.208,31.82,31.82,0,0,1,2.616-3.869,1.029,1.029,0,1,1,1.581,1.318,29.728,29.728,0,0,0-2.442,3.623,36.29,36.29,0,0,1-2.242,3.4c-.335.435-.689.854-1.031,1.259a20.313,20.313,0,0,0-1.546,1.988,20.477,20.477,0,0,0-1.155,2.141,12.334,12.334,0,0,1-2.782,4.12,1.022,1.022,0,0,1-.674.254" transform="translate(-4.65 -22.679)"></path>
            <path id="pth_407" data-name="pth 407" d="M61.136,135.449a1.027,1.027,0,0,1-.982-.732,12.884,12.884,0,0,0-1.052-2.541,18.8,18.8,0,0,0-1.456-2.171,18.793,18.793,0,0,1-1.75-2.684,15.4,15.4,0,0,1-.708-1.746c-.094-.263-.187-.525-.289-.785a21.492,21.492,0,0,0-3.478-5.61,1.029,1.029,0,1,1,1.6-1.3,23.471,23.471,0,0,1,3.8,6.156c.109.279.21.56.311.842a13.6,13.6,0,0,0,.61,1.516,16.839,16.839,0,0,0,1.566,2.383,20.628,20.628,0,0,1,1.611,2.417,14.785,14.785,0,0,1,1.211,2.924,1.03,1.03,0,0,1-.983,1.331" transform="translate(-9.697 -21.926)"></path>
            <path id="pth_408" data-name="pth 408" d="M78.927,127.817a1.008,1.008,0,0,1-.459-.109,4.51,4.51,0,0,1-2.587-2.943c-.487-1.957.366-3.544,1.119-4.944.139-.259.28-.519.412-.782.473-.945,1.032-1.9,1.572-2.824.623-1.064,1.266-2.164,1.761-3.222.239-.512.446-1.04.665-1.6a20.259,20.259,0,0,1,1.1-2.477,20.822,20.822,0,0,1,1.678-2.456,10.919,10.919,0,0,0,2.083-3.589,1.028,1.028,0,1,1,1.985.532,12.609,12.609,0,0,1-2.432,4.3,19.029,19.029,0,0,0-1.519,2.212,18.506,18.506,0,0,0-.986,2.23c-.22.564-.449,1.147-.717,1.719-.535,1.144-1.2,2.286-1.849,3.39-.548.936-1.066,1.82-1.508,2.705-.141.281-.291.56-.439.836-.659,1.225-1.228,2.283-.935,3.464a2.414,2.414,0,0,0,1.513,1.6,1.031,1.031,0,0,1-.46,1.953" transform="translate(-14.348 -19.054)"></path>
            <path id="pth_409" data-name="pth 409" d="M90.426,126.631a1.03,1.03,0,0,1-.892-1.54c.165-.29.359-.619.566-.967.353-.6.755-1.271,1.07-1.877a11.061,11.061,0,0,0,.858-2.867,20.882,20.882,0,0,1,.5-2.065,20.363,20.363,0,0,1,2.013-4.137,1.028,1.028,0,1,1,1.772,1.044,13.784,13.784,0,0,0-2.275,5.577,12.736,12.736,0,0,1-1.048,3.4c-.342.659-.759,1.36-1.126,1.978-.2.335-.387.651-.544.93a1.028,1.028,0,0,1-.895.522" transform="translate(-16.936 -21.024)"></path>
            <path id="pth_410" data-name="pth 410" d="M125.175,90.871a1.029,1.029,0,0,1-.99-.756l-.912-3.3a12.9,12.9,0,0,0-.515-1.6,13.1,13.1,0,0,0-.7-1.337l-1.032-1.8a30.279,30.279,0,0,1-1.661-3.191,23.91,23.91,0,0,1-1.4-4.623,23.173,23.173,0,0,0-2.613-6.556,59.587,59.587,0,0,0-3.75-5.264,15.261,15.261,0,0,1-2.337-4.943c-.293-.87-.6-1.769-.977-2.684a3.076,3.076,0,0,0-3.445-2.2c-1.2.157-2.36,1.454-3.562,3.966a13.6,13.6,0,0,1-1.688,2.384A13.168,13.168,0,0,0,98.2,60.881a23.156,23.156,0,0,0-1.883,4.827,11.465,11.465,0,0,1-2.37,4.34,10.351,10.351,0,0,0-1.976,3.411,13.413,13.413,0,0,0-.325,2.78,12.175,12.175,0,0,1-.649,3.981,12.173,12.173,0,0,1-1.9,2.995c-.3.389-.59.755-.853,1.134a11.62,11.62,0,0,0-1.961,5.108,1.027,1.027,0,1,1-2.038-.264,13.693,13.693,0,0,1,2.311-6.02c.3-.428.615-.836.924-1.23a10.477,10.477,0,0,0,1.6-2.482,10.485,10.485,0,0,0,.507-3.323,15.153,15.153,0,0,1,.392-3.211A12.05,12.05,0,0,1,92.307,68.8a9.8,9.8,0,0,0,2-3.552,24.98,24.98,0,0,1,2.046-5.286A13.953,13.953,0,0,1,98,57.667a12.857,12.857,0,0,0,1.43-1.975c.973-2.036,2.566-4.781,5.149-5.119a5.116,5.116,0,0,1,5.607,3.454c.408.98.722,1.914,1.026,2.817a13.6,13.6,0,0,0,1.981,4.3,61.016,61.016,0,0,1,3.937,5.534,24.98,24.98,0,0,1,2.851,7.183,21.488,21.488,0,0,0,1.279,4.223,28.36,28.36,0,0,0,1.551,2.968l1.033,1.8a14.511,14.511,0,0,1,.81,1.557,14.781,14.781,0,0,1,.6,1.855l.912,3.3a1.032,1.032,0,0,1-.715,1.27,1.046,1.046,0,0,1-.276.037" transform="translate(-15.959 -9.428)"></path>
            <path id="pth_411" data-name="pth 411" d="M118.092,95.991a1.02,1.02,0,0,1-.19-.018,1.03,1.03,0,0,1-.82-1.2,15.741,15.741,0,0,0-.015-4.3c-.063-.69-.129-1.4-.156-2.116a8.758,8.758,0,0,1,.023-1.195c.036-.362.1-.7.169-1.028l.461-2.318a1.028,1.028,0,1,1,2.015.4l-.46,2.315c-.059.294-.113.57-.139.832a6.687,6.687,0,0,0-.015.913c.024.657.084,1.311.148,2a17.506,17.506,0,0,1-.012,4.866,1.028,1.028,0,0,1-1.008.842" transform="translate(-22.146 -15.485)"></path>
            <path id="pth_412" data-name="pth 412" d="M100.4,102.179a1.019,1.019,0,0,1-.351-.063,1.032,1.032,0,0,1-.614-1.321l.517-1.427a5.619,5.619,0,0,0,.481-2.231l.048-.956a5.049,5.049,0,0,1,.212-1.389,4.981,4.981,0,0,1,.31-.7l.035-.068a14.921,14.921,0,0,0,.952-2.366,1.028,1.028,0,1,1,1.965.6,16.914,16.914,0,0,1-1.086,2.7l-.036.072a3.279,3.279,0,0,0-.192.417,3.421,3.421,0,0,0-.106.837l-.048.955a7.571,7.571,0,0,1-.6,2.831l-.518,1.428a1.028,1.028,0,0,1-.965.678" transform="translate(-18.824 -16.968)"></path>
            <path id="pth_413" data-name="pth 413" d="M105.225,80.72a1.07,1.07,0,0,1-.208-.021,1.031,1.031,0,0,1-.8-1.217,25.66,25.66,0,0,1,.981-3.615c.124-.375.425-1.475.464-1.753.084-.59.139-1.06.146-1.259a13.808,13.808,0,0,1,.58-3.335l.25-.944a1.028,1.028,0,1,1,1.986.53l-.251.946a11.659,11.659,0,0,0-.511,2.879c-.011.283-.066.779-.165,1.475a19.8,19.8,0,0,1-.549,2.112,23.813,23.813,0,0,0-.918,3.378,1.028,1.028,0,0,1-1.005.824" transform="translate(-19.738 -12.654)"></path>
            <path id="pth_414" data-name="pth 414" d="M112.1,129.322a1.028,1.028,0,0,1-1.015-.879c-.153-1.035-.312-2.107-.494-3.162a4.738,4.738,0,0,0-.3-1.152,5.031,5.031,0,0,0-.315-.546c-.075-.118-.148-.237-.219-.358a6.849,6.849,0,0,1-.849-2.355,12.551,12.551,0,0,1-.121-2.03l0-.32a32.168,32.168,0,0,0-.543-5.59,1.028,1.028,0,1,1,2.02-.38,34.318,34.318,0,0,1,.578,5.951l0,.33a10.951,10.951,0,0,0,.092,1.7,4.863,4.863,0,0,0,.595,1.648c.059.1.122.2.184.3a6.779,6.779,0,0,1,.443.782,6.539,6.539,0,0,1,.456,1.663c.187,1.08.348,2.164.5,3.211a1.03,1.03,0,0,1-.865,1.171.968.968,0,0,1-.152.011" transform="translate(-20.502 -20.846)"></path>
            <path id="pth_415" data-name="pth 415" d="M126.427,128.177a1.029,1.029,0,0,1-.991-.758,20.938,20.938,0,0,0-1.345-3.585c-.113-.233-.231-.465-.348-.7a11.735,11.735,0,0,1-1.55-5.285,13.682,13.682,0,0,0-.43-2.508,12.584,12.584,0,0,0-.913-2.051,1.028,1.028,0,1,1,1.82-.956,14.219,14.219,0,0,1,1.055,2.4,15.305,15.305,0,0,1,.509,2.894,9.833,9.833,0,0,0,1.339,4.575c.123.243.246.486.365.73a23.015,23.015,0,0,1,1.478,3.939,1.032,1.032,0,0,1-.72,1.267,1.012,1.012,0,0,1-.272.037" transform="translate(-22.873 -20.859)"></path>
            <path id="pth_416" data-name="pth 416" d="M144.548,159.189a1.031,1.031,0,0,1-.581-1.881,2.876,2.876,0,0,0,1.466-3.924l-.034-.115a22.679,22.679,0,0,0-1.741-4.049l-1.084-1.95a15.449,15.449,0,0,0-1.15-1.861l-.481-.626a24.025,24.025,0,0,1-2.505-3.72,11.325,11.325,0,0,1-.678-1.768c-.111-.348-.225-.663-.335-.967a13.817,13.817,0,0,1-.632-2.123,8.371,8.371,0,0,0-.448-1.248,5.106,5.106,0,0,1-.62-2.972,3,3,0,0,1,1.911-1.952,2.226,2.226,0,0,0,.242-.116c.172-.109.368-.214.573-.322.848-.447,1.168-.678,1.169-1.336a6.36,6.36,0,0,0-1.061-2.779,10.068,10.068,0,0,1-1.5-4.332,13.587,13.587,0,0,0-.341-1.68,12.012,12.012,0,0,0-1.114-2.411c-.329-.584-.691-1.18-1.075-1.811a28.136,28.136,0,0,1-2.562-4.9c-.374-1.042-1.233-2.735-1.923-4.1-.335-.66-.64-1.263-.858-1.725a1.028,1.028,0,1,1,1.857-.883c.212.448.508,1.034.833,1.675a45.527,45.527,0,0,1,2.023,4.331,26.708,26.708,0,0,0,2.384,4.531c.375.617.764,1.256,1.11,1.87a13.783,13.783,0,0,1,1.294,2.838,15.058,15.058,0,0,1,.4,1.939,8.14,8.14,0,0,0,1.269,3.659,8.009,8.009,0,0,1,1.32,3.784,3.45,3.45,0,0,1-2.267,3.158c-.155.082-.3.159-.433.241a4.048,4.048,0,0,1-.5.254c-.487.219-.7.35-.764.591a6.142,6.142,0,0,0,.531,1.664,9.432,9.432,0,0,1,.564,1.631,12,12,0,0,0,.55,1.825c.118.328.239.665.359,1.04a9.677,9.677,0,0,0,.549,1.455,22.206,22.206,0,0,0,2.3,3.4l.488.636a17.168,17.168,0,0,1,1.311,2.108l1.085,1.95a24.562,24.562,0,0,1,1.915,4.461l.034.113a5.691,5.691,0,0,1,.253,2.961,5.5,5.5,0,0,1-2.527,3.258,1.015,1.015,0,0,1-.579.181" transform="translate(-24.455 -19.229)"></path>
            <path id="pth_417" data-name="pth 417" d="M136.437,162a1.025,1.025,0,0,1-.892-.517c-.611-1.068-1.192-2.173-1.724-3.285a15.824,15.824,0,0,1-1.659-5.115c-.022-.208-.037-.417-.053-.627a8.693,8.693,0,0,0-.105-.965,8.792,8.792,0,0,0-1.111-2.543,1.028,1.028,0,1,1,1.787-1.017,8.156,8.156,0,0,1,1.478,4.374c.014.186.027.373.047.557a13.969,13.969,0,0,0,1.468,4.443c.511,1.067,1.067,2.127,1.654,3.151a1.034,1.034,0,0,1-.379,1.408,1.022,1.022,0,0,1-.511.137" transform="translate(-24.771 -27.508)"></path>
            <path id="pth_418" data-name="pth 418" d="M120.77,164.425a1.03,1.03,0,0,1-1.014-.87l-.48-3.049a9.388,9.388,0,0,0-.318-1.5,9.542,9.542,0,0,0-.467-1.073l-.069-.142q-.35-.728-.676-1.471a12.378,12.378,0,0,1-.64-1.718,21.316,21.316,0,0,1-.541-3.533c-.047-.494-.092-.965-.152-1.393a1.027,1.027,0,1,1,2.035-.284c.062.454.111.955.161,1.48a19.575,19.575,0,0,0,.477,3.184,10.856,10.856,0,0,0,.539,1.433q.31.708.645,1.4l.068.14a11.086,11.086,0,0,1,.566,1.316,11.284,11.284,0,0,1,.4,1.834l.481,3.049a1.029,1.029,0,0,1-.854,1.179.99.99,0,0,1-.161.013" transform="translate(-22.053 -27.712)"></path>
            <path id="pth_419" data-name="pth 419" d="M99.98,160.753a1.069,1.069,0,0,1-.275-.037,1.032,1.032,0,0,1-.716-1.27l1.421-5.143a12.629,12.629,0,0,1,.584-1.763,12.479,12.479,0,0,1,.764-1.411c.095-.159.19-.317.282-.478a14.359,14.359,0,0,0,1.88-6.443,1.027,1.027,0,1,1,2.052.1,16.438,16.438,0,0,1-2.151,7.373c-.1.172-.2.342-.3.512a11.091,11.091,0,0,0-.645,1.182,10.889,10.889,0,0,0-.483,1.481L100.969,160a1.029,1.029,0,0,1-.99.756" transform="translate(-18.746 -26.727)"></path>
            <path id="pth_420" data-name="pth 420" d="M83.668,160a1.031,1.031,0,0,1-.945-1.433,18.3,18.3,0,0,0,.6-1.749,12.989,12.989,0,0,1,1.217-3.03,13.227,13.227,0,0,1,.9-1.25,10.22,10.22,0,0,0,.819-1.153,10.345,10.345,0,0,0,.57-1.257l1.14-2.841a1.028,1.028,0,1,1,1.906.771l-1.14,2.84a9.238,9.238,0,0,1-1.675,2.91,8.114,8.114,0,0,0-1.768,3.614,20.039,20.039,0,0,1-.67,1.949,1.029,1.029,0,0,1-.947.63" transform="translate(-15.656 -27.364)"></path>
            <path id="pth_421" data-name="pth 421" d="M71.144,163.524a1.022,1.022,0,0,1-.491-.126,6.384,6.384,0,0,1-3.266-3.626,9.871,9.871,0,0,1,.116-3.5l.035-.219a9.19,9.19,0,0,1,1.86-3.916l.2-.294c.355-.517.732-1.018,1.1-1.5.516-.686,1-1.334,1.436-2.024a28.991,28.991,0,0,0,1.7-3.324,28.614,28.614,0,0,1,2.008-3.842c.494-.752,1.05-1.449,1.589-2.125a16.521,16.521,0,0,0,2.134-3.128,1.028,1.028,0,1,1,1.855.885,18.3,18.3,0,0,1-2.385,3.53c-.533.669-1.037,1.3-1.478,1.973a26.628,26.628,0,0,0-1.857,3.569,30.883,30.883,0,0,1-1.826,3.559c-.478.764-1.016,1.479-1.535,2.169-.352.467-.715.95-1.046,1.431l-.207.3a7.411,7.411,0,0,0-1.514,3.041l-.041.252a8.792,8.792,0,0,0-.15,2.66,4.348,4.348,0,0,0,2.257,2.317,1.031,1.031,0,0,1-.493,1.936" transform="translate(-12.742 -25.25)"></path>
            <path id="pth_422" data-name="pth 422" d="M79.642,187.8a1.019,1.019,0,0,1-.552-.162,1.033,1.033,0,0,1-.313-1.423,10.517,10.517,0,0,0,1.2-2.291,11.375,11.375,0,0,0,.344-1.53c.042-.233.083-.466.131-.7a16.283,16.283,0,0,1,1.412-4.1,1.028,1.028,0,1,1,1.835.927,14.267,14.267,0,0,0-1.233,3.581c-.044.216-.083.434-.122.652a12.939,12.939,0,0,1-.416,1.811,12.237,12.237,0,0,1-1.419,2.755,1.023,1.023,0,0,1-.866.477" transform="translate(-14.893 -33.035)"></path>
            <path id="pth_423" data-name="pth 423" d="M57.97,207.731a1.021,1.021,0,0,1-.638-.224,4.975,4.975,0,0,1-2.248-3.287,7.573,7.573,0,0,1,.576-3.629c.3-.747.8-1.915,1.229-2.751.489-.944,1.038-1.865,1.57-2.756.28-.469.56-.937.831-1.408a29.909,29.909,0,0,0,2.2-4.775c.1-.27.19-.543.284-.814a14.278,14.278,0,0,1,2.846-5.344c.311-.405.6-.787.88-1.183a30.652,30.652,0,0,0,2.17-3.887,25.152,25.152,0,0,1,3.193-5.272,1.029,1.029,0,1,1,1.561,1.34,23.265,23.265,0,0,0-2.916,4.854,32.655,32.655,0,0,1-2.323,4.145c-.3.438-.626.857-.939,1.263a12.328,12.328,0,0,0-2.53,4.755c-.1.281-.193.562-.293.842a31.881,31.881,0,0,1-2.358,5.106c-.276.481-.562.96-.848,1.439-.516.865-1.05,1.758-1.51,2.648-.4.768-.865,1.859-1.143,2.561a5.478,5.478,0,0,0-.448,2.6c.105.8.634,1.261,1.487,1.941a1.031,1.031,0,0,1-.639,1.838" transform="translate(-10.428 -32.104)"></path>
            <path id="pth_424" data-name="pth 424" d="M96.6,188.113a1.015,1.015,0,0,1-.422-.092,1.032,1.032,0,0,1-.513-1.364,11.767,11.767,0,0,0,.7-1.8,14.028,14.028,0,0,0,.261-3.4,12.219,12.219,0,0,1,.461-4.159,1.028,1.028,0,1,1,1.93.71,10.632,10.632,0,0,0-.336,3.446,15.5,15.5,0,0,1-.327,3.923,13.261,13.261,0,0,1-.813,2.134,1.029,1.029,0,0,1-.937.607" transform="translate(-18.105 -32.958)"></path>
            <path id="pth_425" data-name="pth 425" d="M117.42,189.753a1.024,1.024,0,0,1-.9-.535,14.594,14.594,0,0,1-1.373-3.058,14.873,14.873,0,0,1-.312-1.49,11.326,11.326,0,0,0-.3-1.42c-.095-.307-.223-.618-.358-.948s-.27-.656-.385-1.012a15.072,15.072,0,0,1-.385-1.519,5.8,5.8,0,0,0-.831-2.317,1.029,1.029,0,1,1,1.624-1.263,7.491,7.491,0,0,1,1.215,3.145c.1.465.2.905.33,1.314.092.283.208.567.332.868.147.357.3.726.421,1.122a13.172,13.172,0,0,1,.366,1.679,12.745,12.745,0,0,0,.266,1.284,13.014,13.014,0,0,0,1.2,2.624,1.029,1.029,0,0,1-.9,1.527" transform="translate(-21.285 -32.804)"></path>
            <path id="pth_426" data-name="pth 426" d="M136.066,189.719a1.029,1.029,0,0,1-.968-.685,16.743,16.743,0,0,0-1.521-3.175l-.169-.27a11.158,11.158,0,0,1-.6-1.044,11.325,11.325,0,0,1-.714-2.084q-.073-.272-.149-.54a9.425,9.425,0,0,0-1.731-3.531,1.029,1.029,0,1,1,1.572-1.329,11.416,11.416,0,0,1,2.133,4.29c.054.189.105.38.157.57a9.614,9.614,0,0,0,.576,1.715,9.507,9.507,0,0,0,.5.854l.178.285a18.858,18.858,0,0,1,1.709,3.566,1.03,1.03,0,0,1-.968,1.378" transform="translate(-24.621 -32.973)"></path>
            <path id="pth_427" data-name="pth 427" d="M153.062,206.227a1.032,1.032,0,0,1-.413-1.976,4.121,4.121,0,0,0,2.412-2.4,3.469,3.469,0,0,0-.563-2.294c-.077-.155-.152-.305-.219-.45-.359-.772-.705-1.425-1.277-2.411-.712-1.23-1.447-2.5-2.213-3.7-.182-.285-.366-.568-.55-.852a31.009,31.009,0,0,1-1.893-3.188c-.352-.716-.647-1.451-.932-2.162-.156-.389-.312-.778-.477-1.162-.366-.852-.79-1.719-1.2-2.557-.451-.92-.919-1.871-1.324-2.836a15.141,15.141,0,0,1-1.257-4.742,1.028,1.028,0,1,1,2.049-.159,13.158,13.158,0,0,0,1.1,4.1c.382.909.836,1.833,1.274,2.727.423.861.86,1.751,1.246,2.651.171.4.333.8.5,1.207.284.707.551,1.374.869,2.02a29.291,29.291,0,0,0,1.772,2.975q.282.433.56.868c.789,1.241,1.534,2.526,2.255,3.768.609,1.05.978,1.749,1.366,2.582.06.129.126.262.195.4a5.348,5.348,0,0,1,.732,3.656,6.067,6.067,0,0,1-3.6,3.852,1.022,1.022,0,0,1-.411.087" transform="translate(-27.119 -32.541)"></path>
            <path id="pth_428" data-name="pth 428" d="M135.156,211.5a1.025,1.025,0,0,1-.866-.476,14.332,14.332,0,0,1-2.1-4.44c-.075-.331-.129-.665-.182-1s-.1-.66-.179-.964a11.967,11.967,0,0,0-1.036-2.469,1.029,1.029,0,1,1,1.831-.938,13.539,13.539,0,0,1,1.2,2.914c.1.387.156.766.213,1.133.046.29.091.58.156.865a12.469,12.469,0,0,0,1.825,3.788,1.033,1.033,0,0,1-.313,1.423,1.022,1.022,0,0,1-.552.162" transform="translate(-24.758 -37.443)"></path>
            <path id="pth_429" data-name="pth 429" d="M135.226,230.2a1.027,1.027,0,0,1-.954-.649,8.313,8.313,0,0,0-.695-1.471,8.423,8.423,0,0,0-1-1.161,8.656,8.656,0,0,1-1.414-1.756,8.773,8.773,0,0,1-.544-1.24l-.94-2.5a1.028,1.028,0,1,1,1.923-.728l.939,2.5a7.167,7.167,0,0,0,.412.957,7.023,7.023,0,0,0,1.1,1.336,7.864,7.864,0,0,1,2.122,3.3,1.031,1.031,0,0,1-.954,1.414" transform="translate(-24.555 -41.059)"></path>
            <path id="pth_430" data-name="pth 430" d="M154.085,231.081a1.027,1.027,0,0,1-.9-.533,15.872,15.872,0,0,1-1.429-3.146c-.074-.246-.137-.5-.2-.745-.07-.272-.136-.545-.224-.812a11.9,11.9,0,0,0-.87-1.86,11.445,11.445,0,0,1-1.149-2.678,11.866,11.866,0,0,1-.229-1.406c-.023-.2-.046-.4-.077-.6A9.556,9.556,0,0,0,148,216.213a1.028,1.028,0,1,1,1.813-.97A11.641,11.641,0,0,1,151.043,219c.033.219.058.44.084.66a10.126,10.126,0,0,0,.183,1.156,9.748,9.748,0,0,0,.965,2.194,13.776,13.776,0,0,1,1.012,2.194c.106.326.186.646.263.955.056.22.11.44.174.656a14.271,14.271,0,0,0,1.26,2.74,1.032,1.032,0,0,1-.4,1.4,1.018,1.018,0,0,1-.5.129" transform="translate(-28.014 -40.063)"></path>
            <path id="pth_431" data-name="pth 431" d="M116.5,231.31a1.025,1.025,0,0,1-.935-.6l-1.407-3.085a10.112,10.112,0,0,1-.966-2.98c-.066-.345-.129-.669-.213-.979a13.55,13.55,0,0,0-.5-1.418c-.182-.463-.37-.942-.52-1.449a9.174,9.174,0,0,1-.351-3.263,1.027,1.027,0,1,1,2.049.148,7.123,7.123,0,0,0,.272,2.531c.124.419.288.835.46,1.276a15.514,15.514,0,0,1,.572,1.634c.1.383.177.761.247,1.127a8.171,8.171,0,0,0,.814,2.51l1.41,3.09a1.032,1.032,0,0,1-.506,1.366,1.015,1.015,0,0,1-.427.094" transform="translate(-21.139 -40.415)"></path>
            <path id="pth_432" data-name="pth 432" d="M100.608,209.525a1.029,1.029,0,0,1-1.021-1.152l.181-1.528c.055-.463.111-.94.214-1.426.089-.419.207-.817.321-1.2.064-.217.128-.434.186-.653a11.2,11.2,0,0,0,.146-5.059,1.027,1.027,0,1,1,2.013-.413,13.269,13.269,0,0,1-.173,6c-.063.238-.133.475-.2.711-.107.363-.208.705-.281,1.045-.083.394-.131.8-.183,1.239l-.181,1.528a1.029,1.029,0,0,1-1.019.909" transform="translate(-18.865 -36.812)"></path>
            <path id="pth_433" data-name="pth 433" d="M80.928,209.538a1.055,1.055,0,0,1-.188-.017,1.031,1.031,0,0,1-.824-1.2l.33-1.787a4.52,4.52,0,0,1,.907-2.186l.068-.1a7.379,7.379,0,0,0,.918-1.741,9.455,9.455,0,0,0,.265-1.118l.724-3.677a1.027,1.027,0,1,1,2.015.4l-.723,3.675a11.092,11.092,0,0,1-.33,1.365,9.3,9.3,0,0,1-1.166,2.249l-.072.106a4.1,4.1,0,0,0-.421.715,4,4,0,0,0-.165.687l-.329,1.787a1.028,1.028,0,0,1-1.009.844" transform="translate(-15.137 -36.738)"></path>
            <path id="pth_434" data-name="pth 434" d="M55.188,231.481a1.022,1.022,0,0,1-.447-.1A1.033,1.033,0,0,1,54.265,230c.286-.593.583-1.206.821-1.816.084-.216.163-.434.241-.652.113-.313.226-.626.353-.934a26.38,26.38,0,0,1,2.009-3.663,24.712,24.712,0,0,0,1.845-3.341,1.028,1.028,0,1,1,1.9.8,26.755,26.755,0,0,1-1.995,3.632,24.589,24.589,0,0,0-1.857,3.367c-.115.277-.216.56-.318.843-.085.235-.17.471-.261.7-.267.684-.582,1.335-.886,1.964a1.027,1.027,0,0,1-.925.581" transform="translate(-10.26 -40.859)"></path>
            <path id="pth_435" data-name="pth 435" d="M70.9,230.762a1.052,1.052,0,0,1-.249-.03,1.031,1.031,0,0,1-.749-1.249l.015-.063a9.325,9.325,0,0,1,1.252-3.185c.205-.287.421-.566.639-.846a11.071,11.071,0,0,0,1.1-1.6,11.26,11.26,0,0,0,.8-2.4,1.028,1.028,0,1,1,1.991.511,9.946,9.946,0,0,1-2.277,4.758c-.2.258-.4.516-.588.78a7.576,7.576,0,0,0-.929,2.482l-.016.063a1.028,1.028,0,0,1-1,.783" transform="translate(-13.236 -41.167)"></path>
            <path id="pth_436" data-name="pth 436" d="M87.527,231.36a1.047,1.047,0,0,1-.276-.038,1.031,1.031,0,0,1-.713-1.27c.139-.5.233-1.028.331-1.583a14.18,14.18,0,0,1,1.855-5.225,12.45,12.45,0,0,0,1.492-3.886,1.027,1.027,0,1,1,2.035.278,14.177,14.177,0,0,1-1.7,4.551,16.884,16.884,0,0,0-1.318,3.027c-.145.513-.24,1.049-.34,1.616s-.208,1.176-.375,1.775a1.028,1.028,0,0,1-.989.755" transform="translate(-16.387 -40.768)"></path>
            <path id="pth_437" data-name="pth 437" d="M14.187,188.257a1.006,1.006,0,0,1-.229-.026A1.03,1.03,0,0,1,13.184,187a21.354,21.354,0,0,1,2.3-6.6c.269-.435.563-.843.846-1.237a14.156,14.156,0,0,0,.984-1.493,14.14,14.14,0,0,0,.65-1.467c.127-.319.255-.638.394-.951.073-.163.138-.324.2-.482a8.308,8.308,0,0,1,.7-1.418,4.411,4.411,0,0,1,2.212-1.825,3.468,3.468,0,0,1,3.156.648,6.464,6.464,0,0,1,1.581,2.388l.05.108c.5,1.073.9,2.183,1.287,3.258a29.328,29.328,0,0,0,1.676,4.009c.176.324.364.643.553.962a10.972,10.972,0,0,1,1.524,3.459,1.028,1.028,0,1,1-2.017.4,9.263,9.263,0,0,0-1.276-2.8c-.2-.342-.4-.683-.589-1.028a31.244,31.244,0,0,1-1.8-4.289c-.392-1.081-.762-2.1-1.221-3.1l-.051-.109a4.917,4.917,0,0,0-1.031-1.67,1.4,1.4,0,0,0-1.294-.244,2.555,2.555,0,0,0-1.033.959,6.414,6.414,0,0,0-.523,1.083c-.072.175-.145.352-.225.534-.129.29-.246.585-.364.879a16.018,16.018,0,0,1-.751,1.682A15.866,15.866,0,0,1,18,180.366c-.276.382-.535.743-.766,1.117a19.485,19.485,0,0,0-2.044,5.971,1.028,1.028,0,0,1-1,.8" transform="translate(-2.492 -31.982)"></path>
            <path id="pth_438" data-name="pth 438" d="M23.991,189.955a1.029,1.029,0,0,1-1.014-.874,8.845,8.845,0,0,0-.465-1.769l-.092-.236c-.093-.236-.185-.473-.257-.715a8.794,8.794,0,0,1-.268-2.467,1.029,1.029,0,0,1,1.017-1.041,1.042,1.042,0,0,1,1.038,1.021,7.1,7.1,0,0,0,.182,1.9c.056.186.128.367.2.549l.1.262a10.839,10.839,0,0,1,.575,2.186,1.031,1.031,0,0,1-.858,1.176,1.059,1.059,0,0,1-.159.012" transform="translate(-4.148 -34.121)"></path>
            <path id="pth_439" data-name="pth 439" d="M21.889,205.614a1.029,1.029,0,0,1-.918-1.491l1.152-2.321c.129-.259.252-.508.365-.761a8.711,8.711,0,0,0,.637-2.185,1.028,1.028,0,1,1,2.031.315,10.826,10.826,0,0,1-.79,2.7c-.124.281-.261.557-.4.833l-1.16,2.334a1.027,1.027,0,0,1-.92.571" transform="translate(-3.951 -36.945)"></path>
            <path id="pth_440" data-name="pth 440" d="M9.7,208.107a1,1,0,0,1-.253-.032,1.03,1.03,0,0,1-.743-1.253,11.87,11.87,0,0,1,1.009-2.633c.268-.51.569-.991.86-1.455.306-.488.593-.949.838-1.427.112-.22.216-.445.32-.67.167-.361.34-.736.551-1.107a14.594,14.594,0,0,1,1.086-1.579c.152-.2.3-.4.451-.607a8.8,8.8,0,0,0,.979-2.052,1.028,1.028,0,1,1,1.923.725,10.582,10.582,0,0,1-1.235,2.533c-.156.218-.319.433-.481.647a12.727,12.727,0,0,0-.939,1.355c-.169.3-.316.615-.472.952-.115.249-.23.5-.355.743-.286.558-.612,1.079-.927,1.583-.283.452-.55.88-.783,1.322a9.836,9.836,0,0,0-.834,2.177,1.029,1.029,0,0,1-1,.778" transform="translate(-1.643 -36.318)"></path>
            <path id="pth_441" data-name="pth 441" d="M35.66,206.6a1.026,1.026,0,0,1-.85-.451,11,11,0,0,1-2.141-4.58,8.055,8.055,0,0,0-.632-1.9c-.08-.148-.17-.289-.259-.43-.107-.169-.213-.339-.31-.514a10.135,10.135,0,0,1-.854-2.391,9.017,9.017,0,0,0-.626-1.845,1.028,1.028,0,1,1,1.822-.953A10.706,10.706,0,0,1,32.6,195.8a8.472,8.472,0,0,0,.667,1.92c.077.141.163.277.248.412.113.179.225.358.325.543a9.683,9.683,0,0,1,.824,2.4,9.089,9.089,0,0,0,1.846,3.916,1.033,1.033,0,0,1-.272,1.432,1.021,1.021,0,0,1-.576.178" transform="translate(-5.658 -36.01)"></path>
            <path id="pth_442" data-name="pth 442" d="M10.267,227.655a1.178,1.178,0,0,1-.118-.007,1.03,1.03,0,0,1-.9-1.143,9.359,9.359,0,0,0-.079-2.587l-.04-.307a7.268,7.268,0,0,1,.2-3.173,9.684,9.684,0,0,1,.739-1.625c.1-.18.193-.36.283-.543.443-.889.917-1.991,1.375-3.057a23.733,23.733,0,0,1,1.9-3.89,1.028,1.028,0,1,1,1.643,1.237,25.688,25.688,0,0,0-1.656,3.47c-.469,1.092-.955,2.221-1.423,3.162-.1.2-.205.4-.31.595a7.95,7.95,0,0,0-.593,1.28,5.284,5.284,0,0,0-.122,2.281l.04.294a11.445,11.445,0,0,1,.083,3.1,1.029,1.029,0,0,1-1.02.913" transform="translate(-1.713 -39.357)"></path>
            <path id="pth_443" data-name="pth 443" d="M17.524,225.357a.934.934,0,0,1-.106-.006,1.029,1.029,0,0,1-.917-1.131,21.384,21.384,0,0,1,.456-3.012l.176-.691a22.763,22.763,0,0,0,.61-2.876,1.027,1.027,0,1,1,2.042.231,24.172,24.172,0,0,1-.662,3.158l-.172.678a19.769,19.769,0,0,0-.406,2.723,1.028,1.028,0,0,1-1.02.926" transform="translate(-3.125 -40.442)"></path>
            <path id="pth_444" data-name="pth 444" d="M27.555,226.785a.956.956,0,0,1-.135-.009,1.029,1.029,0,0,1-.885-1.155c.058-.444.139-.952.227-1.488.137-.841.278-1.711.352-2.51a9.937,9.937,0,0,0-.692-4.434,1.028,1.028,0,1,1,1.92-.733,11.984,11.984,0,0,1,.818,5.357c-.079.87-.234,1.817-.37,2.652-.083.512-.162,1-.218,1.422a1.027,1.027,0,0,1-1.016.9" transform="translate(-4.992 -40.268)"></path>
            <path id="pth_445" data-name="pth 445" d="M37,227.512a1.029,1.029,0,0,1-1.02-.913c-.127-1.1-.15-1.91-.173-2.692-.008-.3-.016-.6-.031-.923a9.407,9.407,0,0,0-.923-3.834c-.081-.161-.168-.319-.255-.477-.136-.25-.272-.5-.392-.756a13.585,13.585,0,0,1-.5-1.281l-.125-.355a19.573,19.573,0,0,0-2.126-4.227,1.028,1.028,0,1,1,1.709-1.145,21.639,21.639,0,0,1,2.35,4.673l.131.373a11.5,11.5,0,0,0,.419,1.087c.1.218.218.428.333.639.1.178.2.357.287.539a11.443,11.443,0,0,1,1.142,4.671c.015.335.024.648.032.957.022.771.043,1.5.16,2.513a1.031,1.031,0,0,1-.9,1.143,1,1,0,0,1-.12.007" transform="translate(-5.926 -39.271)"></path>
            <path id="pth_446" data-name="pth 446" d="M20.308,244.795a1.031,1.031,0,0,1-.147-2.051,47.74,47.74,0,0,0,4.878-1.007c.312-.08.6-.157.883-.231a22.86,22.86,0,0,1,3.127-.67c.824-.11,1.654-.168,2.455-.223a23.077,23.077,0,0,0,3.584-.434c.606-.14,1.3-.249,1.976-.353s1.375-.215,1.938-.35a30.034,30.034,0,0,1,6.485-.6,76.465,76.465,0,0,1,7.853.347c3,.265,9.394.906,12.008,1.2a1.031,1.031,0,0,1-.23,2.049c-2.6-.294-8.972-.933-11.958-1.2a72.386,72.386,0,0,0-7.639-.339,28.491,28.491,0,0,0-6.041.543c-.643.155-1.383.27-2.1.382-.637.1-1.3.2-1.832.325a24.918,24.918,0,0,1-3.9.482c-.806.055-1.567.108-2.327.21a21.064,21.064,0,0,0-2.871.619c-.286.076-.584.155-.9.237a49.977,49.977,0,0,1-5.087,1.049,1.161,1.161,0,0,1-.149.011" transform="translate(-3.652 -44.574)"></path>
            <path id="pth_447" data-name="pth 447" d="M96.96,244.291a31.731,31.731,0,0,1-4.213-.371l-.464-.063a1.031,1.031,0,0,1,.269-2.044l.467.063a24.375,24.375,0,0,0,4.74.329c1.347-.086,2.548-.23,3.819-.382,1.085-.13,2.208-.265,3.426-.359.677-.053,1.426-.093,2.19-.133,1.145-.06,2.33-.123,3.326-.235.856-.1,1.711-.267,2.616-.447.658-.132,1.339-.268,2.017-.371a73.929,73.929,0,0,1,11.542-.543,39.147,39.147,0,0,0,5.4-.505c.905-.129,1.842-.264,2.77-.362a65.016,65.016,0,0,1,7.089-.233l5.453.021a50.256,50.256,0,0,1,5.1.194,59.768,59.768,0,0,1,8.288,1.7c1.062.275,3.718.952,5.466,1.3a1.031,1.031,0,0,1-.4,2.022c-1.8-.359-4.5-1.048-5.579-1.327a58.3,58.3,0,0,0-7.99-1.647,48.753,48.753,0,0,0-4.875-.182l-5.474-.022a63.693,63.693,0,0,0-6.865.223c-.893.1-1.811.226-2.7.352a39.3,39.3,0,0,1-5.7.526,72.154,72.154,0,0,0-11.223.521c-.631.1-1.26.221-1.924.354-.908.181-1.846.368-2.789.473-1.055.119-2.27.183-3.446.245-.747.04-1.478.078-2.14.13-1.175.091-2.277.224-3.342.351-1.243.15-2.528.3-3.932.394-.31.02-.62.028-.93.028" transform="translate(-17.313 -44.53)"></path>
            <path id="pth_448" data-name="pth 448" d="M95.008,264.973a33,33,0,0,1-3.895-.3c-.481-.056-.962-.113-1.443-.161-.783-.079-1.6-.1-2.394-.11l-.425-.008a1.03,1.03,0,0,1-1.005-1.053,1.043,1.043,0,0,1,1.049-1.009l.42.009c.833.015,1.695.032,2.56.119.493.05.986.108,1.478.166a26.076,26.076,0,0,0,4.33.273,24.6,24.6,0,0,0,3.391-.41c.324-.056.674-.116,1.067-.181a23.808,23.808,0,0,1,4.508-.353,1.031,1.031,0,0,1-.148,2.057,21.062,21.062,0,0,0-4.032.332c-.387.063-.731.122-1.05.176a26.467,26.467,0,0,1-3.635.438c-.259.013-.519.019-.777.019" transform="translate(-16.264 -48.878)"></path>
            <path id="pth_449" data-name="pth 449" d="M135.711,264.892c-2.479,0-4.789-.159-7.2-.324-.625-.044-1.26-.087-1.915-.129-1.029-.067-2.248-.091-3.427-.115-1.523-.031-3.1-.063-4.4-.184a1.031,1.031,0,0,1,.189-2.053c1.23.114,2.767.145,4.255.175,1.2.025,2.443.05,3.517.119.657.042,1.3.087,1.923.129a78.957,78.957,0,0,0,9.346.271,103.671,103.671,0,0,0,11.058-1.287,1.031,1.031,0,0,1,.31,2.038,105.261,105.261,0,0,1-11.278,1.309c-.814.035-1.6.05-2.376.05" transform="translate(-22.322 -48.794)"></path>
            <path id="pth_450" data-name="pth 450" d="M165.849,258.645a1.031,1.031,0,0,1-.141-2.051c5.072-.713,10.318-1.452,15.406-2.511l.98-.207c1.3-.277,2.654-.564,4.013-.759.85-.123,1.709-.21,2.539-.294.891-.091,1.812-.184,2.7-.32a58.112,58.112,0,0,0,11.27-3.116,108.083,108.083,0,0,1,15.8-4.806c.722-.156,1.387-.308,2.03-.455a70.4,70.4,0,0,1,7.34-1.368c.876-.115,1.785-.269,2.748-.434a36.652,36.652,0,0,1,5.43-.66c.661-.008,1.41-.026,2.189-.044,1.68-.039,3.417-.081,4.824-.042a47.483,47.483,0,0,1,5.208.554c.7.1,1.4.2,2.066.282.585.073,1.446.229,2.357.4,1.028.187,2.192.4,3.114.519a1.03,1.03,0,0,1-.263,2.044c-.974-.126-2.167-.342-3.219-.534-.882-.161-1.715-.313-2.243-.379-.682-.085-1.388-.185-2.1-.286a46.047,46.047,0,0,0-4.972-.534c-1.358-.035-3.069,0-4.723.043-.788.018-1.544.035-2.213.043a35.319,35.319,0,0,0-5.111.631c-.939.16-1.91.326-2.826.446a68.692,68.692,0,0,0-7.15,1.334c-.651.148-1.322.3-2.051.46a105.875,105.875,0,0,0-15.508,4.72,60.219,60.219,0,0,1-11.687,3.225c-.938.143-1.885.24-2.8.333-.81.082-1.646.167-2.455.282-1.291.186-2.607.465-3.878.736l-.989.208c-5.154,1.074-10.433,1.816-15.539,2.535a1.068,1.068,0,0,1-.143.01" transform="translate(-31.225 -45.077)"></path>
            <path id="pth_451" data-name="pth 451" d="M209.112,251.719a1.064,1.064,0,0,1-.143-.01,35.918,35.918,0,0,1-3.688-.759c-.837-.2-1.7-.416-2.648-.591-1-.186-2.43-.455-3.228-.636a24.857,24.857,0,0,1-2.617-.808c-.89-.309-1.81-.63-2.886-.916a1.031,1.031,0,0,1,.528-1.993c1.149.307,2.149.654,3.031.961a23.086,23.086,0,0,0,2.4.744c.851.193,2.581.515,3.15.621,1,.186,1.9.4,2.759.615a34.246,34.246,0,0,0,3.486.721,1.031,1.031,0,0,1-.14,2.051" transform="translate(-36.59 -45.899)"></path>
            <path id="pth_452" data-name="pth 452" d="M163.211,197.237a1.031,1.031,0,0,1-.012-2.062,14.568,14.568,0,0,0,3.883-.577c.2-.058.4-.12.6-.182.447-.141.908-.286,1.4-.39a15.575,15.575,0,0,1,3.049-.255c.3-.006.6-.011.9-.021a45.618,45.618,0,0,0,5.666-.7,1.031,1.031,0,0,1,.334,2.034,46.84,46.84,0,0,1-5.924.721c-.313.011-.627.017-.941.022a13.85,13.85,0,0,0-2.653.211c-.4.085-.794.21-1.214.342-.212.066-.423.133-.636.194a16.548,16.548,0,0,1-4.43.66Z" transform="translate(-30.725 -36.022)"></path>
            <path id="pth_453" data-name="pth 453" d="M192.363,194.953a1.032,1.032,0,0,1-.336-2.006l5.295-1.837a17.207,17.207,0,0,0,3.63-1.577c.409-.261.8-.563,1.213-.882.354-.274.721-.557,1.111-.822a22.318,22.318,0,0,1,1.946-1.144c.588-.32,1.145-.621,1.668-.968a20.362,20.362,0,0,0,2.55-2.107c2.77-2.574,5.448-5.317,7.956-8.151a9.1,9.1,0,0,0,2.021-3.012,2.668,2.668,0,0,0-.451-2.7,3.421,3.421,0,0,0-2.6-.539,20.036,20.036,0,0,0-6.475,2.332,44.682,44.682,0,0,0-4.8,2.621,41.489,41.489,0,0,0-6.79,6.027l-.539.559a67.858,67.858,0,0,1-5.04,4.889,25.382,25.382,0,0,1-3.912,2.76,1.03,1.03,0,0,1-1.006-1.8,23.489,23.489,0,0,0,3.6-2.54,67.047,67.047,0,0,0,4.884-4.743l.541-.562a43.255,43.255,0,0,1,7.138-6.315,46.017,46.017,0,0,1,5.017-2.747,21.862,21.862,0,0,1,7.161-2.533,5.209,5.209,0,0,1,4.2,1.067,4.609,4.609,0,0,1,1.016,4.867,10.9,10.9,0,0,1-2.435,3.734c-2.553,2.883-5.277,5.675-8.1,8.295a22.164,22.164,0,0,1-2.816,2.314c-.6.4-1.219.734-1.82,1.06-.627.341-1.22.662-1.773,1.038-.339.23-.665.482-1.011.749-.43.333-.875.677-1.361.987a18.712,18.712,0,0,1-4.063,1.787L192.7,194.9a1.031,1.031,0,0,1-.336.057" transform="translate(-35.48 -31.184)"></path>
            <path id="pth_454" data-name="pth 454" d="M159.754,223.82c-.207,0-.414,0-.624-.007a1.031,1.031,0,0,1,.015-2.062h.017a8.633,8.633,0,0,0,2.083-.125c.364-.08.728-.176,1.093-.272a18.517,18.517,0,0,1,1.884-.425c.28-.042.56-.073.841-.1.2-.022.409-.043.612-.071a20.283,20.283,0,0,0,5.372-1.832,1.03,1.03,0,0,1,.837,1.882,21.783,21.783,0,0,1-5.931,1.992c-.224.031-.449.055-.674.079-.249.026-.5.052-.745.09a16.488,16.488,0,0,0-1.674.381c-.393.1-.785.207-1.179.292a8.765,8.765,0,0,1-1.927.179" transform="translate(-29.955 -40.836)"></path>
            <path id="pth_455" data-name="pth 455" d="M197.9,233.534a1.019,1.019,0,0,1-.421-.091c-1.144-.516-2.809-1.449-4.024-2.131a15.307,15.307,0,0,0-6.169-1.583c-.725-.061-1.453-.1-2.18-.143a39.951,39.951,0,0,1-4.741-.462,32.637,32.637,0,0,1-5.163-1.459,26.523,26.523,0,0,1-2.918-1.192,30.951,30.951,0,0,1-4.974-3.32,1.03,1.03,0,0,1,1.247-1.639,29.387,29.387,0,0,0,4.638,3.112,24.919,24.919,0,0,0,2.692,1.1,30.826,30.826,0,0,0,4.836,1.372,37.7,37.7,0,0,0,4.5.434c.747.042,1.492.085,2.236.147a17.2,17.2,0,0,1,7,1.837c1.182.664,2.8,1.572,3.864,2.051a1.032,1.032,0,0,1-.422,1.972" transform="translate(-31.621 -41.296)"></path>
            <path id="pth_456" data-name="pth 456" d="M213.193,232.656a1.013,1.013,0,0,1-.308-.048,5.975,5.975,0,0,1-2.764-1.835c-.15-.211-.29-.432-.43-.652a3.9,3.9,0,0,0-2.969-2.127c-.409-.133-.833-.27-1.252-.443a15.648,15.648,0,0,1-2.206-1.2c-.509-.313-.99-.609-1.488-.854a15.227,15.227,0,0,0-6.555-1.207c-.615-.008-1.23,0-1.846,0a34.034,34.034,0,0,1-5.465-.251,33.857,33.857,0,0,1-8.106-2.681,1.031,1.031,0,0,1,.806-1.9,32.277,32.277,0,0,0,7.61,2.539,31.91,31.91,0,0,0,5.136.228c.629-.006,1.257-.012,1.886,0a17.326,17.326,0,0,1,7.438,1.419c.584.288,1.128.622,1.655.946a14.041,14.041,0,0,0,1.918,1.049c.342.142.708.261,1.1.387a7.362,7.362,0,0,1,2.9,1.463,7.461,7.461,0,0,1,1.168,1.519c.122.191.243.385.374.569a4.132,4.132,0,0,0,1.7,1.058,1.031,1.031,0,0,1-.307,2.015" transform="translate(-33.945 -40.938)"></path>
            <path id="pth_457" data-name="pth 457" d="M224.847,232.223a1,1,0,0,1-.423-.093l-.934-.424a6.436,6.436,0,0,1-.613-.307,3.848,3.848,0,0,1-1.612-1.871,1.028,1.028,0,1,1,1.906-.773,1.8,1.8,0,0,0,.744.865,4.528,4.528,0,0,0,.423.207l.933.425a1.031,1.031,0,0,1-.424,1.97" transform="translate(-41.904 -42.566)"></path>
            <path id="pth_458" data-name="pth 458" d="M228.759,228.388a.987.987,0,0,1-.221-.024,4.817,4.817,0,0,1-1.755-.739,6.977,6.977,0,0,1-.618-.508l-.958-.861a1.029,1.029,0,0,1,1.368-1.537l.958.861a5.219,5.219,0,0,0,.43.36,2.829,2.829,0,0,0,1.015.412,1.031,1.031,0,0,1-.219,2.038" transform="translate(-42.6 -41.885)"></path>
            <path id="pth_459" data-name="pth 459" d="M215.541,220.861A1.018,1.018,0,0,1,215,220.7a15.031,15.031,0,0,0-1.681-.872,18.578,18.578,0,0,1-1.993-1.035c-.6-.373-1.695-1.013-2.231-1.253a28.167,28.167,0,0,0-3.288-1.158,39.544,39.544,0,0,1-4.15-1.432c-.4-.153-.822-.317-1.292-.5a10.067,10.067,0,0,1-5.8-4.731c-.165-.228-.332-.456-.5-.682a14.687,14.687,0,0,0-2.351-2.43,1.029,1.029,0,0,1,1.347-1.557,16.476,16.476,0,0,1,2.649,2.751c.173.233.345.468.516.7a11.328,11.328,0,0,0,2.924,3.142,11.182,11.182,0,0,0,1.94.875c.473.18.9.346,1.3.5a38.12,38.12,0,0,0,3.95,1.367,30.078,30.078,0,0,1,3.588,1.265c.844.377,2.4,1.339,2.47,1.38a16.7,16.7,0,0,0,1.783.922,16.842,16.842,0,0,1,1.908.995,1.031,1.031,0,0,1-.548,1.9" transform="translate(-36.252 -38.218)"></path>
            <path id="pth_460" data-name="pth 460" d="M257.837,203.188l-.066,0a1.029,1.029,0,0,1-.96-1.094,18.05,18.05,0,0,1,2.124-6.972c.446-.831.838-1.477,1.184-2.048a10.84,10.84,0,0,0,1.072-2.049c.042-.121.1-.267.158-.428a5.044,5.044,0,0,0,.431-1.6.214.214,0,0,0-.018-.07,1.635,1.635,0,0,0-.378-.192,4.1,4.1,0,0,1-.464-.217,3.692,3.692,0,0,1-2.074-2.3,5.123,5.123,0,0,1,.415-3.147l.118-.333a14.358,14.358,0,0,1,1.787-3.265c.344-.514.668-1,.955-1.5a24.586,24.586,0,0,0,2.034-5.476c.113-.4.225-.79.341-1.183a6.044,6.044,0,0,1,1.881-3.273,3.674,3.674,0,0,1,3.513-.516c2.04.774,2.809,3.1,3.221,4.357a31.819,31.819,0,0,0,2.678,6.479c.147.246.3.486.454.726a11.01,11.01,0,0,1,1.992,7.294,1.027,1.027,0,1,1-2.054.065,9.076,9.076,0,0,0-1.67-6.248c-.164-.256-.327-.512-.482-.773a33.9,33.9,0,0,1-2.869-6.9c-.423-1.281-.961-2.682-2-3.075a1.654,1.654,0,0,0-1.541.226,4.331,4.331,0,0,0-1.158,2.221c-.114.386-.225.776-.336,1.165a26.527,26.527,0,0,1-2.223,5.93c-.323.568-.684,1.108-1.033,1.629a12.653,12.653,0,0,0-1.552,2.792l-.126.355a3.9,3.9,0,0,0-.383,1.849c.165.544.406.7,1.076,1.08a2.358,2.358,0,0,0,.287.133,2.353,2.353,0,0,1,1.637,1.864,5.692,5.692,0,0,1-.546,2.641c-.052.137-.1.259-.134.361a12.452,12.452,0,0,1-1.26,2.45c-.333.55-.711,1.171-1.131,1.954a15.878,15.878,0,0,0-1.882,6.123,1.029,1.029,0,0,1-1.025.966" transform="translate(-48.65 -31.216)"></path>
            <path id="pth_461" data-name="pth 461" d="M269.256,207.385a1.02,1.02,0,0,1-.653-.236,1.034,1.034,0,0,1-.139-1.451,11.772,11.772,0,0,0,1.876-2.828,23.305,23.305,0,0,1,1.024-2.277c.184-.37.344-.691.453-.957a1.028,1.028,0,1,1,1.9.789c-.137.333-.311.683-.514,1.089a21.3,21.3,0,0,0-.937,2.08,12.931,12.931,0,0,1-2.215,3.417,1.025,1.025,0,0,1-.793.374" transform="translate(-50.814 -37.135)"></path>
            <path id="pth_462" data-name="pth 462" d="M270.313,190.885a1.011,1.011,0,0,1-.319-.051,1.032,1.032,0,0,1-.658-1.3c.153-.473.328-.922.5-1.354a11.9,11.9,0,0,0,.624-1.9,11.5,11.5,0,0,0,.119-3.815,1.027,1.027,0,1,1,2.035-.282,12.24,12.24,0,0,1-.865,6.742c-.158.407-.322.826-.457,1.244a1.029,1.029,0,0,1-.977.712" transform="translate(-51.016 -33.831)"></path>
            <path id="pth_463" data-name="pth 463" d="M256.4,227.657l-.075,0a1.031,1.031,0,0,1-.951-1.1,19.507,19.507,0,0,1,1.356-6.823c.14-.3.3-.582.454-.869.127-.233.255-.466.372-.7.208-.426.389-.891.564-1.342l1.766-4.547a1.027,1.027,0,1,1,1.914.748l-1.766,4.547c-.19.49-.386,1-.634,1.5-.13.267-.272.528-.415.788s-.278.507-.4.767a18.324,18.324,0,0,0-1.159,6.081,1.029,1.029,0,0,1-1.024.957" transform="translate(-48.379 -39.487)"></path>
            <path id="pth_464" data-name="pth 464" d="M266.782,227.671h0a1.03,1.03,0,0,1-1.025-1.034,9.551,9.551,0,0,0-.351-2.334l-.013-.052a14.279,14.279,0,0,1-.331-4.479,1.027,1.027,0,1,1,2.047.172,12.236,12.236,0,0,0,.284,3.833l.012.051a11.325,11.325,0,0,1,.407,2.816,1.029,1.029,0,0,1-1.027,1.028" transform="translate(-50.205 -40.834)"></path>
            <path id="pth_465" data-name="pth 465" d="M276.262,226.074h-.031a1.028,1.028,0,0,1-1-1.061,15.341,15.341,0,0,0-.7-5.054,32.177,32.177,0,0,0-1.686-4.034,1.028,1.028,0,1,1,1.857-.883,33.627,33.627,0,0,1,1.789,4.3,17.43,17.43,0,0,1,.789,5.732,1.028,1.028,0,0,1-1.026,1" transform="translate(-51.672 -40.019)"></path>
            <path id="pth_466" data-name="pth 466" d="M284.611,224.165h0a1.029,1.029,0,0,1-1.025-1.034,13.129,13.129,0,0,0-.389-4c-.121-.377-.283-.752-.454-1.149a11.371,11.371,0,0,1-.654-1.8,11.554,11.554,0,0,1-.237-1.478,6.646,6.646,0,0,0-.315-1.619c-.1-.246-.209-.489-.321-.73a5.71,5.71,0,0,1-.717-2.665,3.223,3.223,0,0,1,1.646-2.774c.583-.351.829-.6.743-1.551a14.508,14.508,0,0,0-1.923-5.006c-.3-.553-.595-1.075-.885-1.588a45.939,45.939,0,0,1-2.249-4.357,1.028,1.028,0,1,1,1.88-.832,44.253,44.253,0,0,0,2.157,4.172c.3.522.595,1.053.9,1.617a16.231,16.231,0,0,1,2.166,5.807,3.282,3.282,0,0,1-1.733,3.506,1.182,1.182,0,0,0-.651,1.088,4,4,0,0,0,.528,1.715c.13.28.259.561.371.848a8.327,8.327,0,0,1,.444,2.135,7,7,0,0,0,.736,2.691c.182.425.372.864.524,1.334a14.9,14.9,0,0,1,.488,4.635,1.029,1.029,0,0,1-1.027,1.028" transform="translate(-52.617 -36.011)"></path>
            <path id="pth_467" data-name="pth 467" d="M200.584,106.5a1.023,1.023,0,0,1-.686-.264,19.836,19.836,0,0,1-3.6-4.556c-.249-.455-.687-1.148-1.15-1.881a33.681,33.681,0,0,1-2.077-3.567,23.669,23.669,0,0,0-4.148-5.725,14.515,14.515,0,0,1-2.535-4.1,26.924,26.924,0,0,0-1.675-3.193,17.846,17.846,0,0,0-4.185-4.564,7.124,7.124,0,0,0-3.257-.738,7.739,7.739,0,0,1-2.539-.452c-1.131-.5-2.123-1.776-3.271-3.253-1.048-1.349-2.236-2.878-3.344-3.408a3.133,3.133,0,0,0-3.663.406c-1.694,1.288-2.922,3.839-4.006,6.089-.313.65-.616,1.279-.918,1.856a26.41,26.41,0,0,1-2.646,3.878c-.48.619-.976,1.259-1.422,1.9a47.254,47.254,0,0,0-2.5,4.193c-.292.53-.584,1.06-.884,1.585a36.166,36.166,0,0,1-3.141,4.47c-.627.8-1.276,1.628-1.9,2.512a56.767,56.767,0,0,0-3.421,5.537,1.028,1.028,0,1,1-1.814-.969,59.018,59.018,0,0,1,3.556-5.756c.652-.928,1.318-1.777,1.961-2.6a34.117,34.117,0,0,0,2.973-4.218c.293-.517.581-1.039.869-1.561a48.735,48.735,0,0,1,2.617-4.376c.476-.684.988-1.345,1.483-1.985a24.417,24.417,0,0,0,2.449-3.57c.293-.559.585-1.167.888-1.8,1.184-2.461,2.527-5.248,4.615-6.836A5.17,5.17,0,0,1,169,68.939c1.544.739,2.833,2.4,4.079,4a10.487,10.487,0,0,0,2.479,2.634,6.554,6.554,0,0,0,1.855.282,8.913,8.913,0,0,1,4.191,1.041,19.706,19.706,0,0,1,4.85,5.225,28.951,28.951,0,0,1,1.8,3.417,12.5,12.5,0,0,0,2.192,3.577,25.141,25.141,0,0,1,4.506,6.275,33.05,33.05,0,0,0,1.934,3.3c.481.761.936,1.48,1.217,1.994a17.738,17.738,0,0,0,3.17,4.013,1.031,1.031,0,0,1-.687,1.8" transform="translate(-26.842 -12.751)"></path>
            <path id="pth_468" data-name="pth 468" d="M153.449,120.679a1.017,1.017,0,0,1-.543-.157,1.031,1.031,0,0,1-.327-1.42,31.139,31.139,0,0,0,3.2-6.109c.1-.292.193-.587.285-.882a13.848,13.848,0,0,1,.9-2.361,14.1,14.1,0,0,1,.91-1.442c.179-.259.358-.517.524-.783a19.926,19.926,0,0,0,2.013-5.373,1.028,1.028,0,1,1,1.983.539,21.486,21.486,0,0,1-2.255,5.926c-.183.294-.38.581-.578.865a8.766,8.766,0,0,0-1.538,3.245c-.1.314-.2.629-.3.939a32.634,32.634,0,0,1-3.4,6.528,1.025,1.025,0,0,1-.872.486" transform="translate(-28.875 -18.92)"></path>
            <path id="pth_469" data-name="pth 469" d="M170.024,138.782a1.078,1.078,0,0,1-.182-.016,1.03,1.03,0,0,1-.829-1.2,37.363,37.363,0,0,1,.936-4.269c.07-.234.145-.469.22-.7.128-.4.249-.771.346-1.149a19.845,19.845,0,0,0,.458-4.078,19.468,19.468,0,0,1,.676-5.034,20.033,20.033,0,0,1,.964-2.357,12.458,12.458,0,0,0,1.414-5.368,1.027,1.027,0,1,1,2.044.2,18.516,18.516,0,0,1-.588,3.542,19.031,19.031,0,0,1-1,2.488,17.8,17.8,0,0,0-.869,2.111,17.579,17.579,0,0,0-.583,4.508,21.864,21.864,0,0,1-.521,4.5c-.112.437-.248.859-.381,1.267-.071.221-.143.442-.21.665a35.462,35.462,0,0,0-.879,4.035,1.028,1.028,0,0,1-1.01.85" transform="translate(-32.016 -21.214)"></path>
            <path id="pth_470" data-name="pth 470" d="M203.667,131.994a1.028,1.028,0,0,1-.956-.654,26.785,26.785,0,0,0-2.735-5.2c-.119-.177-.241-.351-.361-.526a20.119,20.119,0,0,1-1.1-1.709,19.5,19.5,0,0,1-1.215-2.873c-.236-.654-.458-1.271-.729-1.869a12.519,12.519,0,0,0-2.172-3.289c-.209-.229-.427-.451-.644-.673-.347-.355-.706-.721-1.042-1.122a12.381,12.381,0,0,1-1.738-2.816,14.806,14.806,0,0,1-1.07-3.255c-.051-.258-.095-.517-.139-.776a9.532,9.532,0,0,0-.367-1.615,9.952,9.952,0,0,0-1.4-2.326,1.029,1.029,0,1,1,1.658-1.218,11.628,11.628,0,0,1,1.673,2.842,11.106,11.106,0,0,1,.46,1.972c.041.239.08.477.127.714a12.716,12.716,0,0,0,.922,2.8,10.341,10.341,0,0,0,1.445,2.352c.284.339.6.661.933,1,.234.239.468.477.693.724a14.624,14.624,0,0,1,2.529,3.829c.3.673.55,1.358.789,2.02a17.622,17.622,0,0,0,1.08,2.575,18,18,0,0,0,.987,1.531c.126.182.252.364.375.547a28.9,28.9,0,0,1,2.946,5.6,1.029,1.029,0,0,1-.956,1.409" transform="translate(-35.578 -18.97)"></path>
            <path id="pth_471" data-name="pth 471" d="M280.7,136.622a1.026,1.026,0,0,1-.9-.53c-.73-1.314-1.659-2.684-2.558-4.009-.922-1.36-1.877-2.767-2.651-4.16a17.729,17.729,0,0,0-1.7-2.674,17.38,17.38,0,0,0-1.662-1.675c-.493-.455-1-.925-1.477-1.444a24.35,24.35,0,0,1-1.664-2.108,23.232,23.232,0,0,0-1.47-1.878,25.7,25.7,0,0,0-5.068-4.047,28.343,28.343,0,0,1-5.349-4.261,40.707,40.707,0,0,1-3.135-4.5c-.406-.653-.944-1.375-1.466-2.076a17.973,17.973,0,0,1-1.479-2.169,48.58,48.58,0,0,0-4.865-6.634l-.62-.771a20.2,20.2,0,0,1-1.6-2.408,12.774,12.774,0,0,0-1.8-2.539c-.1-.1-.211-.216-.323-.333-.811-.844-1.728-1.8-2.973-1.71-1.291.1-2.1,1.075-3.313,2.665a14.307,14.307,0,0,1-3.125,3.268c-1.218.847-2.345,2.827-3.25,4.417-.342.6-.665,1.169-.972,1.641a23.345,23.345,0,0,1-3.065,3.666c-.8.835-1.713,1.78-2.732,3.032a1.029,1.029,0,1,1-1.592-1.3c1.073-1.319,2.015-2.3,2.846-3.161a21.8,21.8,0,0,0,2.822-3.359c.273-.422.582-.965.909-1.538,1.008-1.772,2.264-3.977,3.866-5.089a12.5,12.5,0,0,0,2.663-2.826c1.237-1.622,2.517-3.3,4.793-3.468,2.2-.167,3.648,1.34,4.6,2.335.1.108.2.211.3.307a14.514,14.514,0,0,1,2.108,2.937,18.744,18.744,0,0,0,1.438,2.173l.619.769a49.253,49.253,0,0,1,5.094,6.985,17.532,17.532,0,0,0,1.3,1.878c.547.734,1.113,1.493,1.564,2.22a37.9,37.9,0,0,0,2.9,4.187,26.314,26.314,0,0,0,4.981,3.946,27.671,27.671,0,0,1,5.452,4.379,25.156,25.156,0,0,1,1.6,2.043,22.379,22.379,0,0,0,1.521,1.933c.415.454.871.874,1.353,1.319a14.764,14.764,0,0,1,3.767,4.863c.729,1.312,1.657,2.68,2.555,4,.923,1.362,1.879,2.771,2.654,4.165a1.03,1.03,0,0,1-.9,1.533" transform="translate(-41.613 -15.793)"></path>
            <path id="pth_472" data-name="pth 472" d="M229.79,136.506a1.022,1.022,0,0,1-.4-.082,1.033,1.033,0,0,1-.546-1.351,28.052,28.052,0,0,0,1.828-6.3l.074-.462a14.966,14.966,0,0,1,.433-2.086,15.22,15.22,0,0,1,.833-2.02,12.106,12.106,0,0,0,.773-1.907,11.831,11.831,0,0,0,.239-3.313c-.007-.412-.015-.825-.011-1.236a20.2,20.2,0,0,1,.681-4.945,1.027,1.027,0,1,1,1.984.534,18.169,18.169,0,0,0-.61,4.438c0,.389,0,.78.01,1.171a13.533,13.533,0,0,1-.312,3.9,13.757,13.757,0,0,1-.9,2.24,13.449,13.449,0,0,0-.727,1.746,13.181,13.181,0,0,0-.367,1.8l-.077.479a30.1,30.1,0,0,1-1.962,6.767,1.028,1.028,0,0,1-.947.63" transform="translate(-43.338 -20.906)"></path>
            <path id="pth_473" data-name="pth 473" d="M263.823,140.069a1.023,1.023,0,0,1-.838-.434,17.558,17.558,0,0,0-2.772-3.3c-.19-.161-.387-.314-.584-.468a10.533,10.533,0,0,1-1.269-1.107,9.887,9.887,0,0,1-1.864-3.415,9.549,9.549,0,0,0-1.654-3.106c-.156-.211-.313-.424-.464-.639a27.687,27.687,0,0,1-2.827-5.724,1.027,1.027,0,1,1,1.906-.769,26.154,26.154,0,0,0,2.605,5.31c.139.2.284.4.43.593a11.456,11.456,0,0,1,1.923,3.6,8.207,8.207,0,0,0,1.447,2.744,8.855,8.855,0,0,0,1.029.887c.219.172.438.343.649.522a19.1,19.1,0,0,1,3.119,3.681,1.033,1.033,0,0,1-.242,1.437,1.016,1.016,0,0,1-.594.191" transform="translate(-47.641 -22.479)"></path>
            <path id="pth_474" data-name="pth 474" d="M194.915,194.5a1.032,1.032,0,0,1-.353-2,10.326,10.326,0,0,0,1.246-.566c.239-.123.488-.25.781-.386a1.03,1.03,0,0,1,.866,1.87c-.268.125-.5.241-.713.353a12.494,12.494,0,0,1-1.473.665,1.017,1.017,0,0,1-.353.063" transform="translate(-36.73 -35.726)"></path>
            <path id="pth_475" data-name="pth 475" d="M203.03,185.713a1.031,1.031,0,0,1-.482-1.942c.245-.13.463-.259.68-.388a13.359,13.359,0,0,1,1.525-.8,1.03,1.03,0,0,1,.824,1.889,11.423,11.423,0,0,0-1.306.691c-.243.144-.486.286-.76.433a1.02,1.02,0,0,1-.48.12" transform="translate(-38.268 -34.055)"></path>
            <path id="pth_476" data-name="pth 476" d="M206.085,189.355a1.032,1.032,0,0,1-.395-1.983c.673-.281,1.5-.573,2.157-.809l.313-.111a1.03,1.03,0,0,1,.689,1.942l-.316.113c-.638.226-1.432.508-2.054.768a1.024,1.024,0,0,1-.394.08" transform="translate(-38.848 -34.782)"></path>
            <path id="pth_477" data-name="pth 477" d="M212.406,177.645a1.031,1.031,0,0,1-.438-1.964,8.121,8.121,0,0,0,.866-.493c.314-.2.669-.418,1.17-.678a1.03,1.03,0,0,1,.943,1.833c-.428.221-.732.412-1.026.6a9.534,9.534,0,0,1-1.078.608,1.009,1.009,0,0,1-.437.1" transform="translate(-40.045 -32.543)"></path>
            <path id="pth_478" data-name="pth 478" d="M215.937,180.952a1.031,1.031,0,0,1-.5-1.932c.218-.122.43-.252.65-.388a15.214,15.214,0,0,1,1.591-.887,1.03,1.03,0,0,1,.872,1.867,13.358,13.358,0,0,0-1.388.777c-.246.152-.484.3-.727.434a1.023,1.023,0,0,1-.5.13" transform="translate(-40.713 -33.15)"></path>
            <path id="pth_479" data-name="pth 479" d="M42.46,53.877c-.04,0-.08,0-.122-.007a1.682,1.682,0,0,1-.884-.4l-11.56-9.2a1.555,1.555,0,0,1-.6-.695,1.029,1.029,0,0,1,.366-1.137.945.945,0,0,1,.578-.221.668.668,0,0,1,.1.007,1.64,1.64,0,0,1,.833.435l9.5,7.578L36.03,38.869a1.457,1.457,0,0,1-.146-.835,1.053,1.053,0,0,1,.444-.7,1.081,1.081,0,0,1,.681-.255.979.979,0,0,1,.108.006,1.456,1.456,0,0,1,.765.358l9.741,7.44-4.833-11.17a1.673,1.673,0,0,1-.2-.922.923.923,0,0,1,.383-.6,1.106,1.106,0,0,1,.661-.224.894.894,0,0,1,.531.166,1.549,1.549,0,0,1,.511.759l5.86,13.586a1.708,1.708,0,0,1,.156.968,1.178,1.178,0,0,1-1.13.965,1.074,1.074,0,0,1-.124-.007,1.679,1.679,0,0,1-.884-.4l-9.7-7.378,4.593,11.318a1.711,1.711,0,0,1,.152.965,1.178,1.178,0,0,1-1.131.965" transform="translate(-5.539 -5.966)"></path>
            <path id="pth_480" data-name="pth 480" d="M62.211,42.148a1.086,1.086,0,0,1-.29-.039c-.623-.172-.721-.765-.786-1.158L58.72,25.829a2.13,2.13,0,0,1-.012-.792,1.095,1.095,0,0,1,1.052-.857,1.132,1.132,0,0,1,.338.054,2.009,2.009,0,0,1,.682.42L72.5,34.465a1.228,1.228,0,0,1,.58,1.276,1.116,1.116,0,0,1-.521.669.919.919,0,0,1-.464.124.954.954,0,0,1-.118-.007,1.522,1.522,0,0,1-.82-.446L68.84,34.12,62.7,37.626l.5,2.995a1.533,1.533,0,0,1-.034.929.949.949,0,0,1-.4.451,1.108,1.108,0,0,1-.55.146m.148-6.531L67.294,32.8,61,27.447Z" transform="translate(-11.115 -4.512)"></path>
            <path id="pth_481" data-name="pth 481" d="M80.955,31.647a.968.968,0,0,1-.56-.172,1.489,1.489,0,0,1-.537-.792l-5.492-13.25a1.09,1.09,0,0,1,.682-1.662l4.865-2.03a6.023,6.023,0,0,1,2.32-.495A4.46,4.46,0,0,1,86.456,16.2a4.473,4.473,0,0,1-1.484,5.565l5.243,4.052a1.729,1.729,0,0,1,.613.716.988.988,0,0,1-.181,1,1.153,1.153,0,0,1-.444.35.938.938,0,0,1-.362.075,1.6,1.6,0,0,1-.94-.428l-6.007-4.65-3.348,1.4,2.311,5.575a1.5,1.5,0,0,1,.182.94,1.038,1.038,0,0,1-.646.768,1.133,1.133,0,0,1-.437.09M78.8,22.485l3.888-1.623c1.819-.759,2.467-2.147,1.778-3.809a2.56,2.56,0,0,0-2.445-1.772,3.935,3.935,0,0,0-1.509.332l-3.887,1.623Z" transform="translate(-14.057 -2.472)"></path>
            <path id="pth_482" data-name="pth 482" d="M101.1,23.761a.987.987,0,0,1-.682-.259,1.493,1.493,0,0,1-.421-.861L96.391,8.71a1.359,1.359,0,0,1,.071-1.058,1.047,1.047,0,0,1,.665-.507A1.317,1.317,0,0,1,97.46,7.1a1.081,1.081,0,0,1,.322.05,1.538,1.538,0,0,1,.7.535l7.509,9.169,2.119-11.674a1.553,1.553,0,0,1,.356-.815,1.232,1.232,0,0,1,.852-.357,1.023,1.023,0,0,1,.55.159,1.32,1.32,0,0,1,.569.887l3.6,13.931a1.492,1.492,0,0,1,.05.957,1.035,1.035,0,0,1-.747.67,1.173,1.173,0,0,1-.294.038.987.987,0,0,1-.682-.259,1.491,1.491,0,0,1-.42-.861L109.319,9.366l-1.663,9.116a1.255,1.255,0,0,1-1.249,1.252,1.435,1.435,0,0,1-1.079-.646l-5.869-7.154L102.086,22.1a1.492,1.492,0,0,1,.05.957,1.038,1.038,0,0,1-.746.67,1.183,1.183,0,0,1-.294.038" transform="translate(-18.246 -0.748)"></path>
            <path id="pth_483" data-name="pth 483" d="M130.165,18.278a5.7,5.7,0,0,1-3.613-1.231c-1.848-1.46-2.093-3.008-2.514-6.68-.446-3.88-.472-5.285.934-7.076a5.8,5.8,0,0,1,4.015-2.16,7.749,7.749,0,0,1,.865-.05,5.357,5.357,0,0,1,3.912,1.569,4.651,4.651,0,0,1,1.378,2.386,1.026,1.026,0,0,1-.2.813,1,1,0,0,1-.687.368c-.05,0-.1.008-.145.008a.93.93,0,0,1-.55-.165A1.832,1.832,0,0,1,133,5.3a3.517,3.517,0,0,0-3.3-2.245,4.745,4.745,0,0,0-.508.029,3.618,3.618,0,0,0-2.545,1.431c-.888,1.15-.838,2.382-.469,5.608.394,3.428.653,4.479,1.726,5.354a3.653,3.653,0,0,0,2.344.838,4.217,4.217,0,0,0,.481-.028,3.766,3.766,0,0,0,2.585-1.4c.716-.917.859-1.87.607-4.179l-2.839.329a3.73,3.73,0,0,1-.409.029,1.043,1.043,0,0,1-.466-.1.987.987,0,0,1-.193-1.611,1.47,1.47,0,0,1,.845-.27l3.671-.425a3.058,3.058,0,0,1,.339-.025,1.012,1.012,0,0,1,.657.212,1.251,1.251,0,0,1,.408.929l.035.3c.333,2.908.267,4.383-1.014,5.987a5.745,5.745,0,0,1-4,2.169,7.188,7.188,0,0,1-.8.047" transform="translate(-23.447 -0.202)"></path>
            <path id="pth_484" data-name="pth 484" d="M157.385,17.2a1.289,1.289,0,0,1-1.052-.847L152.684,9.67,149.056,9.6l-.109,6.041a1.493,1.493,0,0,1-.209.935,1.027,1.027,0,0,1-.875.444,1.048,1.048,0,0,1-.9-.477,1.5,1.5,0,0,1-.174-.943l.26-14.356a1.252,1.252,0,0,1,.316-.965A1.14,1.14,0,0,1,148.208,0l5.4.1c3.051.057,5.066,2.02,5.013,4.887a4.461,4.461,0,0,1-3.583,4.5l3.187,5.826a1.714,1.714,0,0,1,.274.9.981.981,0,0,1-.563.841,1.139,1.139,0,0,1-.533.142ZM153.4,7.744c1.91,0,3.024-1.012,3.056-2.777a2.7,2.7,0,0,0-.82-2.154,3.355,3.355,0,0,0-2.23-.758l-4.212-.077-.1,5.688Z" transform="translate(-27.807)"></path>
            <path id="pth_485" data-name="pth 485" d="M177.565,19a3.446,3.446,0,0,1-.435-.036L169.042,17.9a1.088,1.088,0,0,1-1.093-1.426L169.812,2.2a1.254,1.254,0,0,1,.421-.924,1,1,0,0,1,.636-.2,2.717,2.717,0,0,1,.358.03l8.091,1.062a1.476,1.476,0,0,1,.833.277.958.958,0,0,1,.319.863.952.952,0,0,1-.521.748,1.028,1.028,0,0,1-.449.093,3.468,3.468,0,0,1-.436-.036l-7.2-.945-.705,5.41,5.946.781a1.475,1.475,0,0,1,.833.277.988.988,0,0,1-.2,1.611,1.037,1.037,0,0,1-.449.093,3.447,3.447,0,0,1-.435-.036l-5.947-.782-.724,5.549,7.2.945a1.48,1.48,0,0,1,.832.277.988.988,0,0,1-.2,1.611,1.039,1.039,0,0,1-.449.093" transform="translate(-31.811 -0.201)"></path>
            <path id="pth_486" data-name="pth 486" d="M191.22,21.72a1.167,1.167,0,0,1-.279-.034,1.036,1.036,0,0,1-.756-.66,1.5,1.5,0,0,1,.037-.957l1.325-5.443-2.067-9.1a1.5,1.5,0,0,1-.025-.9A.98.98,0,0,1,190.179,4a1.039,1.039,0,0,1,.238-.028A1.062,1.062,0,0,1,190.67,4a.884.884,0,0,1,.449.262,1.573,1.573,0,0,1,.346.807l1.7,7.484L198.111,6.7a1.562,1.562,0,0,1,.678-.555.869.869,0,0,1,.3-.053.913.913,0,0,1,.222.028,1.028,1.028,0,0,1,.439.223.986.986,0,0,1,.355.89,1.5,1.5,0,0,1-.438.789l-6.018,7.12-1.325,5.442a1.493,1.493,0,0,1-.408.866.991.991,0,0,1-.695.269" transform="translate(-35.881 -0.74)"></path>
            <path id="pth_487" data-name="pth 487" d="M214.587,29.213a1.13,1.13,0,0,1-.43-.087,1.038,1.038,0,0,1-.651-.762,1.5,1.5,0,0,1,.175-.942l5.129-12.658-3.3-1.347a1.481,1.481,0,0,1-.736-.48.959.959,0,0,1-.09-.916.948.948,0,0,1,.693-.591,1.071,1.071,0,0,1,.175-.015,1.835,1.835,0,0,1,.694.185l8.606,3.511a1.465,1.465,0,0,1,.736.48.964.964,0,0,1,.091.916.951.951,0,0,1-.694.59,1.089,1.089,0,0,1-.177.015,1.823,1.823,0,0,1-.693-.185l-3.3-1.348-5.128,12.659a1.49,1.49,0,0,1-.529.8.967.967,0,0,1-.567.177" transform="translate(-40.443 -2.13)"></path>
            <path id="pth_488" data-name="pth 488" d="M233.975,39.717a1.123,1.123,0,0,1-.524-.131.945.945,0,0,1-.409-.431,1.541,1.541,0,0,1-.064-.935l.414-3.011-6.24-3.333L224.9,33.9a1.528,1.528,0,0,1-.8.469,1.091,1.091,0,0,1-.154.012.926.926,0,0,1-.441-.111,1.116,1.116,0,0,1-.54-.655,1.223,1.223,0,0,1,.554-1.286l11.442-10.14a2.12,2.12,0,0,1,.662-.434,1.145,1.145,0,0,1,.375-.068,1.1,1.1,0,0,1,1.043.817,2.043,2.043,0,0,1,.012.8l-1.993,15.185a1.23,1.23,0,0,1-.764,1.175,1.1,1.1,0,0,1-.319.047m-.3-6.526,1.141-8.2-6.155,5.525Z" transform="translate(-42.23 -4.047)"></path>
            <path id="pth_489" data-name="pth 489" d="M243.295,45.013a1.1,1.1,0,0,1-.6-.187,1.04,1.04,0,0,1-.493-.875,1.493,1.493,0,0,1,.353-.89l7.825-11.971c.266-.405.393-.552.674-.68a.942.942,0,0,1,.39-.083,1.105,1.105,0,0,1,.605.188,1.037,1.037,0,0,1,.492.874,1.488,1.488,0,0,1-.353.89l-7.825,11.972c-.265.405-.392.551-.673.679a.934.934,0,0,1-.391.083" transform="translate(-45.883 -5.659)"></path>
            <path id="pth_490" data-name="pth 490" d="M258.665,56.485a1.466,1.466,0,0,1-.788-.407l-6.351-5.037a1.09,1.09,0,0,1-.208-1.785L260.186,38a1.485,1.485,0,0,1,.73-.617.917.917,0,0,1,.31-.052,1.093,1.093,0,0,1,.673.245,1.038,1.038,0,0,1,.413.915,1.492,1.492,0,0,1-.43.854L253.44,50.06l5.648,4.48a1.481,1.481,0,0,1,.574.667.96.96,0,0,1-.168.9.947.947,0,0,1-.753.377c-.026,0-.051,0-.076,0" transform="translate(-47.541 -6.965)"></path>
          </g>
        </svg>