<svg width="210" height="17" viewBox="0 0 210 17" fill="none" xmlns="http://www.w3.org/2000/svg">
<g clip-path="url(#clip0_3_1317)">
<mask id="mask0_3_1317" style="mask-type:luminance" maskUnits="userSpaceOnUse" x="0" y="0" width="210" height="17">
<path d="M210 0H0V17H210V0Z" fill="white"/>
</mask>
<g mask="url(#mask0_3_1317)">
<path d="M16.9433 0.0453333C16.8282 0.0395219 16.7132 0.0577332 16.6053 0.098852C16.4973 0.139971 16.3987 0.203132 16.3155 0.284467C16.115 0.526369 15.9853 0.820919 15.9411 1.13447L13.1744 12.8588L10.1478 1.09707C10.0984 0.817368 9.97109 0.558087 9.7811 0.3502C9.68471 0.25429 9.56989 0.179797 9.44386 0.131421C9.31783 0.0830452 9.18334 0.0618366 9.04888 0.0691333C8.91458 0.0617878 8.78024 0.0829779 8.65439 0.131361C8.52854 0.179743 8.41391 0.254264 8.31777 0.3502C8.12707 0.557725 7.99933 0.81712 7.94999 1.09707L4.92443 12.8588L2.15666 1.13447C2.11314 0.820935 1.98374 0.526302 1.78332 0.284467C1.70032 0.202542 1.60161 0.139008 1.49338 0.0978561C1.38516 0.0567038 1.26976 0.0388218 1.15443 0.0453333C0.949882 0.0442743 0.750297 0.109581 0.584522 0.231815C0.418747 0.35405 0.295367 0.526881 0.232212 0.725333C0.162278 1.02618 0.180043 1.34131 0.283323 1.632L3.66443 15.8803C3.72508 16.2008 3.87561 16.4964 4.09777 16.7314C4.19489 16.831 4.31088 16.9094 4.43868 16.9619C4.56648 17.0143 4.7034 17.0396 4.8411 17.0363C4.97793 17.0397 5.11403 17.0149 5.2412 16.9633C5.36838 16.9117 5.484 16.8343 5.5811 16.7359C5.80419 16.5004 5.95549 16.204 6.01666 15.8825L9.04888 4.18993L12.0822 15.8814C12.1429 16.2019 12.2934 16.4976 12.5155 16.7325C12.7154 16.927 12.981 17.0355 13.2572 17.0355C13.5334 17.0355 13.799 16.927 13.9989 16.7325C14.2222 16.4957 14.3738 16.1982 14.4355 15.8757L17.8144 1.62973C17.9174 1.33901 17.9355 1.02409 17.8667 0.723067C17.8031 0.524618 17.6795 0.351852 17.5136 0.229651C17.3477 0.107449 17.148 0.0421179 16.9433 0.0430667" fill="black"/>
<path d="M30.4911 1.09253C30.4156 0.8374 30.2918 0.599835 30.1267 0.393267C30.0323 0.283635 29.916 0.19592 29.7856 0.13604C29.6552 0.07616 29.5137 0.045508 29.3707 0.0461525C29.2277 0.046797 29.0865 0.078723 28.9566 0.139776C28.8267 0.200829 28.7112 0.289589 28.6178 0.400067C28.4581 0.605834 28.3368 0.839786 28.26 1.09027L23.2255 15.3295C23.107 15.5456 23.0542 15.7929 23.074 16.0398C23.0938 16.2866 23.1852 16.5219 23.3367 16.7155C23.4321 16.8167 23.5465 16.8973 23.673 16.9526C23.7995 17.0079 23.9357 17.0367 24.0733 17.0374C24.2687 17.0367 24.4582 16.9688 24.6111 16.8447C24.8388 16.6362 24.9989 16.3618 25.07 16.0582L26.0533 13.2249H32.7055L33.6878 16.0582C33.7596 16.3651 33.9221 16.642 34.1533 16.8515C34.305 16.9716 34.4914 17.0369 34.6833 17.0374C34.821 17.037 34.9572 17.0083 35.0838 16.953C35.2104 16.8977 35.3247 16.8169 35.42 16.7155C35.5717 16.5218 35.6638 16.2866 35.6848 16.0395C35.7057 15.7925 35.6546 15.5447 35.5378 15.3272L30.4911 1.09253ZM32.0467 11.3299H26.7011L29.38 3.60627L32.0467 11.3299Z" fill="black"/>
<path d="M49.9255 9.42933C50.9079 9.18624 51.7756 8.59945 52.3775 7.77113C52.9795 6.94281 53.2776 5.9254 53.22 4.896C53.2477 4.2516 53.1413 3.60852 52.908 3.00902C52.6747 2.40952 52.3196 1.86717 51.8661 1.41759C51.4127 0.96802 50.8711 0.621405 50.277 0.400523C49.6828 0.179641 49.0496 0.0894923 48.4189 0.136H43.4578C43.2938 0.11568 43.1275 0.131799 42.9702 0.183251C42.8129 0.234702 42.6684 0.320266 42.5467 0.434066C42.4381 0.566969 42.3572 0.721012 42.3089 0.886819C42.2606 1.05263 42.2458 1.22673 42.2655 1.39853V15.6491C42.227 15.9712 42.2901 16.2975 42.4455 16.5807C42.5375 16.7214 42.662 16.8368 42.8082 16.9166C42.9543 16.9964 43.1175 17.0382 43.2833 17.0382C43.4491 17.0382 43.6123 16.9964 43.7585 16.9166C43.9046 16.8368 44.0292 16.7214 44.1211 16.5807C44.2767 16.2975 44.3397 15.9712 44.3011 15.6491V9.65373H47.7167L51.2633 16.2157C51.4411 16.5421 51.7078 17.0374 52.2633 17.0374C52.444 17.0336 52.6206 16.9816 52.7755 16.8867C52.9277 16.8058 53.0557 16.6848 53.1464 16.5363C53.2371 16.3878 53.2871 16.2172 53.2911 16.0423C53.2803 15.7252 53.1855 15.4169 53.0167 15.1504L49.9255 9.42933ZM51.1811 4.9198C51.2099 5.31089 51.1528 5.70362 51.0139 6.06934C50.8751 6.43507 50.658 6.76459 50.3784 7.03387C50.0989 7.30315 49.7639 7.50542 49.398 7.62593C49.0321 7.74644 48.6445 7.78215 48.2633 7.73047H44.3011V2.08533H48.2667C48.6486 2.03967 49.0357 2.08037 49.4005 2.20453C49.7653 2.32869 50.0988 2.53326 50.3773 2.80372C50.6558 3.07418 50.8725 3.40389 51.012 3.76941C51.1515 4.13494 51.2104 4.52732 51.1844 4.91867" fill="black"/>
<path d="M73.5889 0.04533C73.3797 0.0362056 73.1727 0.0923446 72.9956 0.206263C72.761 0.381684 72.5812 0.622563 72.4778 0.899863L67.7989 11.5838L63.1167 0.90213C63.0155 0.624558 62.8375 0.382854 62.6045 0.206263C62.4256 0.0915602 62.2166 0.0354037 62.0056 0.04533C61.8692 0.0436744 61.734 0.0715016 61.609 0.126979C61.4839 0.182457 61.3718 0.264326 61.28 0.367197C61.0505 0.644867 60.9375 1.00361 60.9656 1.36566V15.6457C60.9269 15.9678 60.9899 16.2942 61.1456 16.5773C61.2375 16.718 61.3621 16.8334 61.5082 16.9132C61.6544 16.993 61.8176 17.0348 61.9833 17.0348C62.1491 17.0348 62.3123 16.993 62.4585 16.9132C62.6046 16.8334 62.7292 16.718 62.8211 16.5773C62.9771 16.2943 63.0402 15.9678 63.0011 15.6457V5.23033L66.6722 13.5705C66.8845 14.0522 67.1689 14.4987 67.8045 14.4987C68.44 14.4987 68.7233 14.0522 68.9367 13.5705L72.6033 5.23146V15.6491C72.5647 15.9712 72.6277 16.2976 72.7833 16.5807C72.8754 16.7214 73.0001 16.8368 73.1463 16.9166C73.2925 16.9964 73.4558 17.0381 73.6217 17.0381C73.7875 17.0381 73.9508 16.9964 74.0971 16.9166C74.2433 16.8368 74.368 16.7214 74.46 16.5807C74.6153 16.2974 74.6783 15.9712 74.64 15.6491V1.36566C74.6683 1.00538 74.557 0.648154 74.33 0.370597C74.2379 0.266704 74.1252 0.183976 73.9993 0.127899C73.8734 0.0718215 73.7373 0.0436765 73.6 0.04533" fill="black"/>
<path d="M92.5555 8.05347H89.0766C88.7929 8.0206 88.5063 8.0801 88.2577 8.22347C88.1344 8.31697 88.0343 8.43875 87.9656 8.57898C87.8969 8.71921 87.8615 8.87395 87.8623 9.0307C87.863 9.18746 87.8999 9.34184 87.97 9.48137C88.04 9.6209 88.1413 9.74167 88.2655 9.83393C88.5124 9.97394 88.796 10.0318 89.0766 9.9994H91.7655C91.7544 12.3046 91.5177 13.2271 90.75 14.0499C90.4181 14.4013 90.0188 14.6791 89.577 14.8661C89.1352 15.0531 88.6604 15.1452 88.1822 15.1368C87.7028 15.1441 87.2274 15.048 86.787 14.8549C86.3466 14.6617 85.9512 14.3758 85.6266 14.0159C84.7166 13.0311 84.5877 11.9646 84.5877 8.5408C84.5877 5.3176 84.6733 4.09813 85.6277 3.06566C86.0475 2.60546 86.5807 2.26856 87.1716 2.09011C87.7626 1.91167 88.3896 1.8982 88.9874 2.05112C89.5851 2.20405 90.1317 2.51776 90.5702 2.95954C91.0086 3.40131 91.3228 3.95498 91.48 4.5628C91.5561 4.87022 91.7093 5.15218 91.9244 5.38107C92.0978 5.53907 92.3243 5.62271 92.5566 5.61453C92.6834 5.61726 92.8094 5.5932 92.9266 5.54385C93.0438 5.4945 93.1498 5.42094 93.2377 5.3278C93.3329 5.22373 93.4061 5.1008 93.4527 4.96667C93.4994 4.83253 93.5185 4.69005 93.5089 4.54807C93.4146 3.62656 93.0555 2.754 92.4766 2.04C91.973 1.37298 91.3193 0.839395 90.5709 0.484329C89.8225 0.129262 89.0013 -0.0368589 88.1766 -1.54336e-06C87.4349 -0.0182694 86.6976 0.120782 86.0113 0.408344C85.3251 0.695907 84.7049 1.12571 84.19 1.67053C82.6844 3.27647 82.5577 4.6648 82.5577 8.54193C82.5577 12.2094 82.6211 13.7632 84.1922 15.4145C84.7119 15.9565 85.3349 16.3842 86.0228 16.6714C86.7108 16.9585 87.449 17.0988 88.1922 17.0839C88.9331 17.1019 89.6695 16.9617 90.3542 16.6722C91.0388 16.3828 91.6566 15.9505 92.1677 15.4031C93.5366 13.9672 93.7577 12.5199 93.7577 9.6152V9.31487C93.7775 9.14306 93.7628 8.96894 93.7145 8.80312C93.6662 8.63731 93.5852 8.48327 93.4766 8.3504C93.3548 8.23673 93.2103 8.15124 93.053 8.0998C92.8958 8.04836 92.7295 8.03216 92.5655 8.05233" fill="black"/>
<path d="M109.263 9.42933C110.246 9.18666 111.114 8.60003 111.716 7.77163C112.318 6.94324 112.617 5.9256 112.559 4.896C112.587 4.2516 112.48 3.60852 112.247 3.00902C112.014 2.40952 111.659 1.86717 111.205 1.41759C110.752 0.96802 110.21 0.621405 109.616 0.400523C109.022 0.179641 108.389 0.0894923 107.758 0.136H102.797C102.633 0.11568 102.466 0.131799 102.309 0.183251C102.152 0.234702 102.007 0.320266 101.886 0.434066C101.777 0.566811 101.696 0.720805 101.647 0.886634C101.598 1.05246 101.584 1.22665 101.603 1.39853V15.6491C101.565 15.9712 101.628 16.2975 101.783 16.5807C101.875 16.7214 102 16.8368 102.146 16.9166C102.292 16.9964 102.455 17.0382 102.621 17.0382C102.787 17.0382 102.95 16.9964 103.096 16.9166C103.242 16.8368 103.367 16.7214 103.459 16.5807C103.614 16.2975 103.677 15.9712 103.639 15.6491V9.65373H107.05L110.597 16.2157C110.774 16.5421 111.041 17.0374 111.597 17.0374C111.777 17.0337 111.954 16.9817 112.109 16.8867C112.261 16.8061 112.39 16.6852 112.481 16.5366C112.571 16.3881 112.622 16.2174 112.626 16.0423C112.615 15.7252 112.52 15.4169 112.351 15.1504L109.263 9.42933ZM110.523 4.91867C110.552 5.3098 110.495 5.70256 110.356 6.06832C110.217 6.43409 110 6.76367 109.721 7.03303C109.441 7.3024 109.106 7.50478 108.74 7.62543C108.374 7.74608 107.987 7.78197 107.606 7.73047H103.639V2.08533H107.606C107.988 2.03949 108.375 2.08005 108.74 2.20413C109.105 2.32821 109.438 2.53276 109.717 2.80324C109.996 3.07372 110.212 3.40349 110.352 3.76911C110.492 4.13472 110.549 4.52721 110.523 4.91867Z" fill="black"/>
<path d="M129.044 2.08533C129.328 2.11867 129.615 2.05914 129.863 1.91533C129.989 1.82497 130.09 1.7045 130.159 1.56456C130.228 1.42463 130.263 1.26952 130.259 1.11293C130.262 0.95472 130.227 0.79808 130.157 0.657052C130.087 0.516024 129.983 0.395013 129.856 0.304865C129.609 0.164644 129.325 0.10678 129.044 0.139398H121.368C121.204 0.11908 121.038 0.135092 120.88 0.186339C120.723 0.237586 120.579 0.32286 120.457 0.436332C120.348 0.569303 120.267 0.723353 120.219 0.889141C120.171 1.05493 120.156 1.229 120.176 1.4008V15.6808C120.156 15.8524 120.171 16.0263 120.219 16.1919C120.267 16.3575 120.348 16.5114 120.457 16.6441C120.578 16.7579 120.723 16.8435 120.88 16.8949C121.037 16.9464 121.204 16.9625 121.368 16.9422H129.044C129.328 16.9755 129.615 16.916 129.863 16.7722C129.987 16.6786 130.087 16.5567 130.155 16.4164C130.224 16.2761 130.26 16.1212 130.259 15.9644C130.258 15.8076 130.221 15.6531 130.151 15.5135C130.081 15.3739 129.98 15.253 129.856 15.1606C129.609 15.0204 129.325 14.9625 129.044 14.9951H122.212V9.4418H127.857C128.14 9.47546 128.427 9.4159 128.676 9.2718C128.799 9.17815 128.899 9.05632 128.967 8.91611C129.036 8.7759 129.071 8.62124 129.07 8.46456C129.069 8.30789 129.033 8.15358 128.963 8.01407C128.893 7.87456 128.792 7.75374 128.668 7.66133C128.421 7.52089 128.137 7.46302 127.857 7.49587H122.212V2.08533H129.044Z" fill="black"/>
<path d="M145.612 0.15753C145.475 0.0837638 145.323 0.0448815 145.168 0.0441968C145 0.0426832 144.836 0.0941563 144.699 0.19153C144.471 0.369632 144.298 0.610791 144.201 0.886263L140.979 7.70213L137.754 0.886263C137.657 0.610347 137.485 0.368758 137.257 0.190397C137.119 0.0931792 136.956 0.0417101 136.789 0.0430634C136.632 0.0421292 136.477 0.0810743 136.338 0.156397C136.194 0.23 136.07 0.339402 135.979 0.474496C135.888 0.60959 135.831 0.766019 135.814 0.92933C135.803 1.23369 135.88 1.53473 136.037 1.79406L139.953 10.0855V15.6479C139.915 15.9702 139.978 16.2966 140.134 16.5795C140.226 16.72 140.351 16.8352 140.497 16.9149C140.643 16.9945 140.806 17.0362 140.972 17.0362C141.137 17.0362 141.3 16.9945 141.446 16.9149C141.592 16.8352 141.717 16.72 141.809 16.5795C141.964 16.2962 142.026 15.97 141.988 15.6479V10.0855L145.91 1.79293C146.068 1.53453 146.145 1.23347 146.132 0.92933C146.116 0.765788 146.059 0.609084 145.968 0.473761C145.876 0.338439 145.753 0.228883 145.609 0.155263" fill="black"/>
<path d="M168.71 0.303732C168.463 0.163511 168.18 0.105647 167.899 0.138265H159.153C158.87 0.105789 158.583 0.165269 158.334 0.308265C158.209 0.398876 158.107 0.519552 158.038 0.65967C157.969 0.799789 157.935 0.955054 157.939 1.1118C157.935 1.26991 157.97 1.42648 158.04 1.5675C158.11 1.70852 158.214 1.82959 158.341 1.91987C158.588 2.06016 158.872 2.11803 159.152 2.08533H162.507V15.6479C162.468 15.9701 162.531 16.2964 162.687 16.5795C162.779 16.7203 162.903 16.8356 163.05 16.9154C163.196 16.9952 163.359 17.037 163.525 17.037C163.691 17.037 163.854 16.9952 164 16.9154C164.147 16.8356 164.271 16.7203 164.363 16.5795C164.519 16.2963 164.582 15.9701 164.543 15.6479V2.08533H167.899C168.182 2.11835 168.469 2.05883 168.717 1.91533C168.842 1.82476 168.943 1.70425 169.012 1.56436C169.081 1.42447 169.116 1.26947 169.112 1.11293C169.115 0.95477 169.08 0.798239 169.01 0.657261C168.94 0.516283 168.836 0.395229 168.709 0.304865" fill="black"/>
<path d="M180.17 1.09253C180.095 0.836946 179.971 0.599209 179.804 0.393267C179.71 0.284017 179.594 0.196632 179.464 0.136984C179.334 0.0773369 179.192 0.0468092 179.05 0.0474534C178.907 0.0480975 178.766 0.0798986 178.636 0.140719C178.507 0.20154 178.391 0.28997 178.298 0.400067C178.137 0.605285 178.015 0.83938 177.939 1.09027L172.9 15.3295C172.781 15.5456 172.729 15.7929 172.748 16.0398C172.768 16.2866 172.86 16.5219 173.011 16.7155C173.106 16.8169 173.221 16.8976 173.347 16.9529C173.474 17.0082 173.61 17.0369 173.748 17.0374C173.943 17.0364 174.132 16.9686 174.286 16.8447C174.513 16.6359 174.673 16.3617 174.744 16.0582L175.726 13.2249H182.379L183.361 16.0582C183.433 16.365 183.595 16.6419 183.826 16.8515C183.977 16.972 184.164 17.0374 184.357 17.0374C184.494 17.0367 184.63 17.0079 184.756 16.9526C184.883 16.8973 184.997 16.8167 185.092 16.7155C185.244 16.5218 185.336 16.2866 185.357 16.0396C185.378 15.7925 185.327 15.5446 185.21 15.3272L180.17 1.09253ZM181.726 11.3299H176.381L179.059 3.60627L181.726 11.3299Z" fill="black"/>
<path d="M191.617 0.0453333C191.451 0.040885 191.286 0.0802833 191.139 0.159709C190.993 0.239135 190.868 0.355893 190.779 0.498667C190.623 0.781224 190.559 1.10722 190.598 1.42913V15.6479C190.559 15.9702 190.623 16.2966 190.779 16.5795C190.871 16.72 190.995 16.8352 191.141 16.9149C191.287 16.9945 191.45 17.0362 191.616 17.0362C191.782 17.0362 191.945 16.9945 192.091 16.9149C192.237 16.8352 192.361 16.72 192.453 16.5795C192.61 16.2967 192.673 15.9702 192.634 15.6479V1.43367C192.673 1.11174 192.61 0.785673 192.453 0.5032C192.364 0.360427 192.24 0.243668 192.093 0.164242C191.946 0.0848166 191.782 0.0454184 191.616 0.0498667" fill="black"/>
<path d="M210.094 15.1663C209.848 15.0258 209.564 14.9679 209.283 15.0008H202.506V1.4348C202.544 1.11264 202.481 0.78632 202.326 0.503198C202.233 0.36271 202.109 0.247548 201.963 0.167905C201.817 0.0882622 201.653 0.0465965 201.488 0.0465965C201.322 0.0465965 201.159 0.0882622 201.013 0.167905C200.867 0.247548 200.742 0.36271 200.65 0.503198C200.495 0.78594 200.431 1.11188 200.47 1.43367V15.6842C200.45 15.856 200.465 16.0301 200.514 16.1959C200.562 16.3616 200.643 16.5157 200.751 16.6487C200.873 16.7623 201.018 16.8478 201.175 16.8993C201.332 16.9507 201.498 16.9669 201.662 16.9467H209.284C209.568 16.9794 209.854 16.9199 210.102 16.7767C210.226 16.6831 210.326 16.5612 210.394 16.4209C210.463 16.2806 210.498 16.1258 210.498 15.9689C210.497 15.8121 210.46 15.6576 210.39 15.518C210.32 15.3784 210.219 15.2586 210.094 15.1663Z" fill="black"/>
</g>
</g>
<defs>
<clipPath id="clip0_3_1317">
<rect width="210" height="17" fill="white"/>
</clipPath>
</defs>
</svg>
