<svg width="24" height="24" viewBox="0 0 24 24" fill="none" xmlns="http://www.w3.org/2000/svg">
<path fill-rule="evenodd" clip-rule="evenodd" d="M10.9991 2.14669e-08C9.26446 0.000150009 7.55449 0.410512 6.00875 1.19758C4.463 1.98465 3.1253 3.12612 2.10486 4.5288C1.08441 5.93148 0.410153 7.55559 0.137123 9.26856C-0.135908 10.9815 3.23057e-05 12.7348 0.533845 14.3852C1.06766 16.0356 1.98421 17.5364 3.20867 18.765C4.43313 19.9936 5.9308 20.9152 7.57939 21.4546C9.22798 21.994 10.9808 22.1359 12.6947 21.8687C14.4085 21.6014 16.0349 20.9327 17.441 19.917L21.524 24L23.9991 21.525L19.916 17.442C21.1027 15.7996 21.8126 13.8613 21.9675 11.8411C22.1225 9.82076 21.7164 7.79693 20.794 5.9928C19.8717 4.18867 18.469 2.67435 16.7406 1.61688C15.0122 0.559406 13.0253 -0.000126544 10.9991 2.14669e-08ZM4.98905 4.99C5.77492 4.1856 6.7126 3.54515 7.74777 3.10574C8.78293 2.66632 9.895 2.43669 11.0196 2.43014C12.1441 2.4236 13.2588 2.64026 14.299 3.06759C15.3392 3.49491 16.2843 4.1244 17.0795 4.91959C17.8746 5.71478 18.5041 6.65986 18.9315 7.70007C19.3588 8.74028 19.5755 9.85495 19.5689 10.9795C19.5624 12.104 19.3327 13.2161 18.8933 14.2513C18.4539 15.2864 17.8134 16.2241 17.0091 17.01C15.4088 18.5734 13.2567 19.4429 11.0196 19.4299C8.7824 19.4168 6.64058 18.5223 5.05864 16.9404C3.47671 15.3585 2.58222 13.2167 2.56919 10.9795C2.55617 8.74234 3.42565 6.59025 4.98905 4.99Z" fill="#333333"/>
</svg>
