<svg width="24" height="26" viewBox="0 0 24 26" fill="none" xmlns="http://www.w3.org/2000/svg">
<path d="M17.1256 14.1252C19.0973 15.0541 20.7785 16.501 21.9889 18.3108C23.1993 20.1206 23.8933 22.2251 23.9965 24.3986C24.0102 24.5977 23.9839 24.7975 23.9193 24.9863C23.8546 25.1752 23.7527 25.3492 23.6197 25.4982C23.4867 25.6472 23.3252 25.7682 23.1447 25.8541C22.9642 25.94 22.7683 25.989 22.5686 25.9984C22.3688 26.0077 22.1692 25.9771 21.9815 25.9084C21.7938 25.8397 21.6217 25.7342 21.4753 25.5982C21.329 25.4622 21.2113 25.2984 21.1292 25.1164C21.0472 24.9345 21.0024 24.7379 20.9975 24.5384C20.8883 22.2299 19.8925 20.0519 18.2169 18.4567C16.5412 16.8615 14.3143 15.9715 11.9985 15.9715C9.68262 15.9715 7.45573 16.8615 5.78004 18.4567C4.10436 20.0519 3.10859 22.2299 2.99945 24.5384C2.97249 24.9292 2.79327 25.2939 2.50019 25.5544C2.20712 25.8149 1.82347 25.9506 1.43141 25.9323C1.03936 25.914 0.670061 25.7433 0.402604 25.4566C0.135146 25.1699 -0.00920735 24.7902 0.000455652 24.3986C0.103418 22.2253 0.797107 20.121 2.00716 18.3112C3.21721 16.5014 4.89799 15.0544 6.86933 14.1252C5.60609 13.0737 4.69808 11.6594 4.26883 10.0746C3.83957 8.48983 3.9099 6.81157 4.47026 5.2681C5.03061 3.72463 6.05377 2.39089 7.40058 1.44829C8.74739 0.505692 10.3525 0 11.9975 0C13.6424 0 15.2475 0.505692 16.5943 1.44829C17.9411 2.39089 18.9643 3.72463 19.5247 5.2681C20.085 6.81157 20.1553 8.48983 19.7261 10.0746C19.2968 11.6594 18.3888 13.0737 17.1256 14.1252ZM17.0035 7.98561C17.0035 6.6609 16.4761 5.39045 15.5375 4.45374C14.5989 3.51703 13.3259 2.99079 11.9985 2.99079C10.671 2.99079 9.398 3.51703 8.45938 4.45374C7.52076 5.39045 6.99345 6.6609 6.99345 7.98561C6.99345 9.31032 7.52076 10.5808 8.45938 11.5175C9.398 12.4542 10.671 12.9804 11.9985 12.9804C13.3259 12.9804 14.5989 12.4542 15.5375 11.5175C16.4761 10.5808 17.0035 9.31032 17.0035 7.98561Z" fill="#333333"/>
</svg>
